<?xml version="1.0" encoding="UTF-8"?>
<svg enable-background="new 0 0 400 400" version="1.1" viewBox="0 0 400 400" xmlns="http://www.w3.org/2000/svg">
 <path d="m81.25 242.12c-1.841 0.051-2.467-1.168-3.253 0.865-0.524 1.355-0.988 2.612-1.462 4.017-0.953 2.815-2.068 5.661-3.396 8.269-1.648 3.234-2.994 6.66-4.544 9.979-1.324 2.836-2.426 5.748-3.944 8.491-0.888 1.605-5.12 8.135-0.503 7.001 2.703-0.664 2.776-3.883 3.729-5.999 2.389-5.309 4.92-10.521 7.287-15.841 1.106-2.485 2.21-5.502 2.869-8.209 0.372-1.528 1.011-2.728 1.744-4.079 0.37-0.682 2.193-3.07 2.132-3.624-0.14-1.268-2.649-1.031-3.532-1.244" fill="#DDD9D9"/>
 <path d="m79.333 245.66c-0.496-1.801-1.683-4.485-2.663-2.5-0.604 1.224-0.58 2.306-1.65 1.712-0.242-0.135 0.134-0.231 0 0-0.25 0.431-0.724 0.312-1.017 0.654-2.561 3-0.844 6.418 2.125 8.505 1.328 0.933 1.795 2.413 3.371 2.296 2.657-0.197 1.406-2.603 0.997-4.203-0.171-0.671-0.025-1.447-0.164-2.13-0.071-0.35 0.152-0.862-0.025-1.179-0.205-0.366-0.993-0.26-1.108-0.519-0.56-1.257 1.576-4.237-1.7-4.304" fill="#E0E0E0"/>
 <path d="m73 217.5c-1.24 0.915-1.292 3.219-1.166 4.66 0.176 2.001 2.576 4.454 3.98 5.765 1.611 1.504 2.553 2.489 3.273 4.76 0.615 1.939 0.356 3.328-0.129 5.184-0.399 1.526-0.505 3.17 1.201 4.052 1.964 1.016 1.643-1.341 1.983-2.539 0.414-1.462 1.211-2.795 1.857-4.16 0.931-1.969 1.539-4.571 2-6.737 0.465-2.189 0.182-4.752 0-6.967-0.251-3.062-3.671-4.887-6.503-5.016-2.121-0.098-6.646-0.604-7.163 2.165" fill="#B5B5B6"/>
 <path d="m103.34 361.4c2.334-0.207 3.334-1.495 3.328-3.752-3e-3 -1.239 0.119-2.087-0.658-3.096-1.341-1.741-2.902-1.745-4.769-2.196-2.376-0.574-3.044-1.17-4.483-2.83-1.709-1.972-3.778 0.061-3.81 2.109-0.02 1.255 0.576 2.202 1.608 2.874 1.797 1.169 2.96 1.848 4.237 3.8 1.051 1.606 2.408 3.282 4.547 3.091z" fill="#151415"/>
 <path d="m75.167 338.35c7e-3 1.828-1.701 1.914-2.824 3.042-1.814 1.822-2.306 6.057-1.272 8.33 0.394 0.866 1.581 2.703 2.795 2.368 1.125-0.31 1.307-3.078 1.972-4.053 0.719-1.055 1.733-2.009 2.533-3.009 0.752-0.941 1.73-2.777 2.845-3.164-0.829-1.126-3.911-2.106-5.383-2.849" fill="#2E1218"/>
 <path d="m98.167 345.69c-0.869 1.031-1.716 1.056-2.156 2.414-0.423 1.308-0.296 3.101 0.86 3.968 0.364 0.273 2.586 1.1 2.959 1.09 1.747-0.047 1.326-1.602 2.158-2.919 0.435-0.688 2.12-1.615 1.699-2.677-0.552-1.394-3.957-1.538-5.186-1.876" fill="#2E1218"/>
 <path d="m83.321 312.52c-1.549-0.46-3.965-0.49-5.321-1.355-0.641-0.409-2.093-3.312-3.005-1.807-0.627 1.035-0.857 2.715-1.395 3.887-0.721 1.569-0.8 3.344-1.464 4.941-0.483 1.161-0.781 2.006-1.088 3.285-1.957 8.15 0.517 16.614 8.803 19.644 1.318 0.482 2.613 1.302 3.975 1.579 4.283 0.873 8.121 0.057 10.173-3.929-0.116 0.226-0.035 3.214 0.013 3.674 0.123 1.186 0.692 2.198 1.875 2.75 1.797 0.839 3.78 1.617 5.743 1.951 9.811 1.669 17.62-2.738 24.569-9.327 1.922-1.821 4.029-4.133 4.968-6.628 0.416-1.104 0.581-2.217 1.117-3.346 0.278-0.586 1.297-2.071 0.887-2.832 0.021-0.104 0.013-0.206-0.025-0.305-7.535-0.419-15.214-0.056-22.585-1.968-2.499-0.648-5.029-1.76-7.405-2.796-2.287-0.997-4.723-1.856-6.987-2.786-4.215-1.729-8.542-3.352-12.848-4.632z" fill="#2E1218"/>
 <path d="m94.333 264.34c-0.204 1.169-1.412 3.472-1.958 5.015-0.365 1.03-0.476 2.032-0.832 3.105-0.614 1.853-1.51 3.795-2.211 5.703-1.522 4.144-3.705 8.149-5.465 12.359-1.619 3.871-3.325 7.582-4.941 11.487-0.592 1.43-3.27 4.222-3.141 5.663 0.108 1.218 3.985 2.25 5.316 2.759 4.082 1.561 8.405 2.785 12.548 4.241 4.774 1.678 9.41 3.97 14.396 4.971 4.922 0.989 9.864 2.41 14.789 3.398 2.162 0.434 4.325 0.188 6.534 0.289 1.836 0.085 3.693 0.916 5.44 0.825-0.034-2.315 1.313-3.662 2.245-5.653 1.129-2.411 2.159-4.871 3.145-7.343 1.902-4.775 3.59-9.633 5.265-14.491 1.167-3.387 2.131-6.765 3.296-10.177 0.828-2.426 1.616-4.896 1.981-7.44 0.145-1.01-0.01-1.943 0.163-2.924 0.157-0.893 0.712-1.516 0.597-2.493-0.416-3.511-5.992-0.013-7.565 0.619-1.896 0.762-3.845 1.316-5.691 2.132-1.842 0.813-4.062 1.369-6.09 1.786-4.362 0.897-10.309 1.728-14.53 0.338-4.223-1.391-7.97-3.791-11.527-6.408-2.896-2.13-5.107-4.588-8.291-6.416-1.187-0.681-2.671-1.167-3.805-1.513" fill="#79BA70"/>
 <path d="m100.04 264.49c-1.361-0.992-2.734-3.126-4.525-3.358-1.668-0.218-2.167 0.78-1.444 2.284 1.383 2.874 5.107 3.403 7.278 5.285 1.253 1.087 2.165 2.533 2.913 3.988 1.523 2.963 3.94 4.162 6.604 6.108 2.008 1.467 4.559 2.227 6.987 2.619 3.489 0.565 6.455-0.243 9.843-0.723 1.475-0.209 2.716-0.057 4.173-0.656 1.633-0.672 3.073-1.745 4.729-2.374 1.887-0.717 3.807-1.72 5.776-2.198 2.78-0.676 5.704-1.26 8.377-2.295 2.487-0.962 2.358-3.438 2.228-5.939-3.774-0.485-5.935 1.743-9.135 3.14-3.819 1.666-7.582 3.454-11.336 5.261-2.003 0.964-4.276 2.036-6.392 2.459-3.631 0.726-5.565 0.958-8.825-0.665-3.312-1.648-5.363-4.207-8.318-6.349-2.987-2.165-5.945-4.409-8.933-6.587z" fill="#5B8851"/>
 <path d="m96.404 317.28c0.238 0.104 0.485 0.234 0.752 0.411 0.873 0.577 1.801 1.03 2.776 1.402 1.363 0.521 2.795 0.22 4.107 0.658 0.978 0.326 1.835 0.901 2.774 1.313 0.979 0.43 2.03 0.64 3.032 1.018 1.35 0.509 2.781 0.745 4.206 0.929 1.396 0.181 2.467 0.645 3.812 0.949 3.06 0.692 6.244 0.84 9.338 1.34 1.167 0.188 2.356 0.394 3.542 0.407 0.877 0.011 1.698-0.236 2.58-0.275 2.047-0.091 3.716-1.554 2.528-3.698-0.788 1.781-2.457 1.511-4.108 1.534-1.02 0.015-1.998 0.187-3.016 0.053-2.192-0.287-4.93 0.067-6.974-0.786-1.852-0.773-3.806-0.475-5.742-0.787-0.901-0.146-1.591-0.809-2.555-0.841-0.784-0.026-1.572 0.14-2.334-0.122-1.145-0.393-1.843-1.465-3.132-1.646-0.822-0.115-1.611 0.038-2.405-0.262-0.593-0.225-1.092-0.644-1.7-0.838-0.589-0.188-1.139-0.187-1.683-0.436-0.635-0.292-1.28-0.799-1.852-1.201-0.749-0.527-1.807-0.471-2.419-1.015-1.031-0.917-2.157-1.44-3.531-1.651-0.827-0.127-1.644-0.047-2.447-0.299-0.879-0.276-1.619-0.68-2.564-0.757-1.625-0.133-3.388-0.795-4.928-1.43-0.986-0.406-1.954-0.884-3.045-0.9-1.479-0.023-2.684-0.806-3.834-1.757-0.522-0.432-1.598-1.722-2.383-1.253-0.622 0.37-0.37 1.503-0.096 1.999 0.531 0.961 1.93 1.64 2.877 2.069 2.043 0.927 4.209 1.508 6.376 2.085 2.22 0.591 4.441 1.383 6.613 2.083 1.06 0.342 2.115 0.62 3.163 0.999 0.891 0.325 1.541 0.387 2.272 0.705z" fill="#5B8851"/>
 <path d="m93.167 267.84c-2.515 0.348 1.199 3.897 1.625 4.838 0.71 1.564 0.385 3.052 0.691 4.653 0.818 4.272-0.059 7.557-3.492 10.749-1.408 1.309-3.076 1.54-4.954 1.917-0.949 0.19-4.251 0.261-4.715 1.13-0.67 1.254 1.871 2.477 2.793 2.637 4.328 0.752 9.8-3.567 11.713-7.107 0.877-1.624 1.165-4.121 1.338-6.02 0.211-2.313 0.517-4.688-0.625-6.801-0.893-1.65-3.061-6.237-5.375-5.662" fill="#5B8851"/>
 <path d="m144.83 300.68c-0.146 1.91-2.604 4.385-3.245 6.532-0.528 1.771-0.83 3.802-0.921 5.652-0.185 3.742-0.251 8.061 1.033 11.538 1.534 4.156 3.214 8.756 6.718 11.552 3.386 2.702 8.055 4.283 12.086 5.56 7.649 2.422 16.67 0.217 23.487-3.442 3.661-1.965 7.188-4.487 8.5-8.554 1.332-4.129 4.99-9.053 5.357-13.544 0.308-3.77-0.141-8.237-1.14-12.049-0.217-0.827-0.752-3.151-1.4-3.561-0.93-0.589-2.774 0.264-3.617 0.463-2.595 0.611-5.224 1.323-7.816 1.843-7.603 1.525-15.853 0.677-23.579 0.677-5.432 0-10.102-0.716-14.968-2.659-0.432-0.173-0.887-0.463-1.328-0.674" fill="#4C90CD"/>
 <path d="m170.5 309.35c1.706-3.171 5.228-4.282 8.57-4.773 1.774-0.261 3.063-0.493 4.836-0.738 0.774-0.107 1.877-0.353 2.625-0.51 1.16-0.245 2.436-0.041 3.614-0.075 0.491-0.015 0.981-0.046 1.467-0.125 1.063-0.175 2.592 0.072 3.62-0.299-0.958-0.197-2.523 0.791-3.456 1.063-0.946 0.274-1.81 0.465-2.778 0.641-1.789 0.324-3.925 0.464-5.63 1.068-1.59 0.564-3.198 1.338-4.783 1.971-2.676 1.069-4.786 3.188-8.244 2.431" fill="#F05760"/>
 <path d="m180.72 351.15c0 0.797-0.272 2.087 0.319 2.7 0.719 0.747 2.508 0.419 3.416 0.716 1.589 0.521 4.796 3.057 5.537 0.578 1.529-5.122-7.351-4.031-10.02-3.78-0.285 0.445-0.208 0.883 0.063 1.349" fill="#141314"/>
 <path d="m163.2 341.73c1.25 1.739 0.411 2.936 0.097 5.138-0.315 2.205-3.161 6.294 0.04 7.23 1.534 0.45 2.556 0.454 3.58-0.901 0.884-1.17 1.69-2.977 2.043-4.37 0.637-2.52 1.547-4.053 1.208-6.639" fill="#4D90CD" stroke="#000" stroke-miterlimit="10"/>
 <path d="m174.67 341.35c3.096 1.08 3.158 6.726 5.338 9.037 1.13 1.198 2.541 1.691 4.17 1.796 1.982 0.127 3.819 0.068 1.991-1.996-1.237-1.396-2.821-2.987-3.638-4.67-0.65-1.341-0.14-2.915-0.354-4.33-0.235-1.55-0.798-3.163-2.666-2.85-1.431 0.24-3.937 2.084-3.675 3.68" fill="#4D90CD"/>
 <path d="m278.33 329.35c2.179 0.64 4.008 1.502 6.38 0.55 3.671-1.474 2.576-5.513-1.229-5.33-1.869 0.09-7.479 1.656-6.817 4.446" fill="#4D90CD"/>
 <path d="m232.83 349.69c-1.193 0.99-1.112 3.599 0.195 4.467 1.058 0.702 3.276 0.713 4.476 0.333 3.223-1.02 3.283-4.772 3.138-7.778-2.726 0.604-5.327 3.302-8.142 3.479" fill="#4D90CD"/>
 <path d="m192.83 283.5c-0.182 2.561 0.486 5.778 0.829 8.329 0.35 2.601 1.804 4.885 2.375 7.384 1.406 6.155 8.286 1.036 11.814 3.519-1.221 1.626-2.676 3.394-4.173 4.769-0.921 0.846-2.598 1.467-2.996 2.739-0.296 0.946 0.217 2.429 0.172 3.454-0.069 1.575 0.624 3.291 1.178 4.731 0.806 2.092 1.807 3.987 2.139 6.25 0.479 3.26 1.372 6.428 1.628 9.722 0.114 1.472 0.352 4.434-0.27 5.784-0.804 1.744-2.071 0.428-3.756 0.964-0.967 0.308-2.241 1.349-3.082 1.942-1.845 1.304-3.9 3.48-1.047 5.021 2.211 1.194 5.631 0.683 8.027 0.476 3.872-0.333 7.608-1.547 11.477-1.908 5.086-0.476 9.733 3.1 15.018 1.544 1.719-0.506 2.93-2.216 4.42-3.143 1.295-0.807 2.706-1.786 3.987-2.506 1.667-0.937 4.001-1.215 5.839-1.237 4.688-0.057 10.69 2.71 15.078 0.495 4.783-2.413 7.737-6.922 10.794-11.128 0.991-1.364 1.919-3.341 3.51-4.089 1.992-0.937 4.27-0.109 6.214-1.471 1.974-1.382 3.167-4.685 4.649-6.624 1.763-2.305 4.02-3.262 6.18-5.091 1.816-1.539 1.658-4.33-0.867-4.606-2.34-0.256-5.126 1.027-7.439 0.364-1.663-0.478-3.353-3.055-4.416-4.354-1.58-1.93-2.926-4.067-3.615-6.483-1.057-3.704-3.47-10.05-7.422-11.641-3.271-1.317-7.717 2.874-10.009 4.781-2.568 2.138-4.711 2.476-5.873-1.361-0.503-1.661-0.582-3.769-0.9-5.455-0.291-1.546-0.96-3.279-0.984-4.847-0.023-1.484 0.797-2.5 1.286-3.842 0.47-1.289 0.366-2.755 0.876-4.029 0.633-1.582 1.621-2.576 1.132-4.396-0.11-0.41-2.173-3.945-2.476-3.564-1.949 2.455-3.152 5.611-4.676 8.384-1.561 2.84-2.899 5.746-5.148 8.12-1.373 1.448-3.302 2.711-4.964 3.847-1.476 1.009-3.193 2.441-4.98 2.667-1.904 0.24-4.168 0.181-5.898 1.016-2.041 0.984-3.813 2.247-5.968 3.105-4.634 1.843-8.977 1.229-13.666-0.098-4.176-1.182-7.904-3.343-11.491-5.662-0.835-0.539-1.67-2.037-2.838-1.87" fill="#252525"/>
 <path d="m293.75 309.75c0 1.438 0.203 2.829-0.868 3.947-1.566 1.635-4.173 1.58-5.761 3.142-1.825 1.796-2.515 4.48-4.151 6.411-0.97 1.144-1.976 2.013-3.467 2.25-1.202 0.19-2.622-0.066-3.635 0.716-1.607 1.243 0.403 1.873 1.632 1.516 1.614-0.469 3.849-0.753 5.251-1.726 1.24-0.86 2.589-1.617 3.593-2.783 1.584-1.84 2.738-3.908 3.817-6.061 0.92-1.835 2.339-1.965 4.21-2.722 0.973-0.393 2.076-0.781 1.756-2.072-0.192-0.781-1.431-2.252-2.252-2.368" fill="#B7B7B7"/>
 <path d="m198.12 342.25c-2.871-0.018-3.88 4.022-2.6 6 2.032 3.14 5.582 3.29 9.072 2.888 4.306-0.495 7.805-2.82 12.19-3.013 1.668-0.073 2.463-0.38 3.855 0.506 2.974 1.89 7.002 1.869 10.471 1.744 2.497-0.09 5.388-1.031 7.556-2.278 3.193-1.836 5.7-4.373 9.693-3.972 1.782 0.18 3.225 1.22 5.029 1.379 2.052 0.181 4.001 0.129 5.979-0.349 3.676-0.888 5.923-3.286 8.136-6.174 1.733-2.263 4.034-4.229 5.865-6.238 1.39-1.525 3.212-3.674 4.155-5.508 0.139-0.27-2.516-0.058-2.851 0.142-0.902 0.539-1.298 1.531-1.759 2.415-0.475 0.909-0.948 1.473-1.606 2.238-1.157 1.346-1.303 3.3-2.612 4.505-3.163 2.91-7.491 6.179-11.946 6.465-1.749 0.112-3-0.321-4.597-0.844-1.56-0.51-3.022-1.137-4.717-1.156-2.588-0.029-5.91 0.59-8.166 1.927-1.769 1.049-2.659 3.181-4.505 4.221-3.931 2.216-9.692 1.22-13.671-0.269-1.918-0.718-4.423-1.137-6.458-1.261-4.292-0.26-7.812 3.175-12.015 3.382-2.604 0.127-7.69-1.192-5.752-4.882 0.569-1.084 2.027-1.354 2.877-2.118" fill="#B7B7B7"/>
 <path d="m232.28 305.73c-3.094 1.126-6.225 2.176-9.287 3.385-1.511 0.597-4.896 0.389-5.404 2.325-0.477 1.817 1.602 2.857 2.782 3.686 0.414 0.29 1.611 0.787 1.88 1.145 1.019 1.352 0.125 4.339-0.048 5.84-0.33 2.868 2.805 4.004 5.172 4.016 1.046 5e-3 2.674-0.894 3.633-1.494 0.229 0.642-0.057 1.435 0.169 2.092 0.251 0.73 1.337 1.74 1.94 2.127 1.822 1.17 5.24 1.598 7.338 1.248 1.916-0.32 5.579-2.465 4.581-4.835 1.712-0.103 3.433 1.084 4.988 1.769 1.238 0.545 3.158 0.77 4.478 0.844 1.74 0.099 2.299-1.289 2.869-2.717 0.315-0.787 0.593-1.521 0.726-2.352 0.174-1.091-0.188-2.334 1.108-2.782 1.242-0.429 2.799 0.401 4.138-0.109 3.372-1.287 4.953-4.569 4.656-8.005-0.207-2.394-1.659-2.757-3.568-3.535-0.606-0.247-1.711-0.447-2.05-0.873 0.627-0.598 2.171-3.391 1.877-4.249-0.362-1.057-2.973-1.296-3.884-1.725-1.256-0.591-3.821-1.132-4.512-2.406-0.406-0.749 0.223-1.151-0.704-1.617-0.782-0.395-1.794-0.041-2.521 0.271-3.543 1.518-7.014 3.587-10.716 4.673-3.244 0.947-6.425 2.108-9.641 3.278z" fill="#D3D3D3"/>
 <path d="m204.25 306.38c1.879-0.066 3.704 0.429 5.531 0.716 1.401 0.221 2.827 0.159 4.257 0.159 2.844 0 5.704-0.29 8.46-0.744 5.788-0.954 11.184-2.581 16.6-4.854 4.897-2.056 10.156-3.748 14.715-6.524 2.368-1.442 4.671-2.943 6.81-4.723 1.112-0.925 2.254-1.727 3.384-2.658 0.881-0.727 2.661-3.115 3.668-1.391 1.497 2.561-2.633 3.547-4.027 4.312-2.95 1.617-5.747 3.953-8.362 6.057-1.163 0.937-2.524 1.676-3.672 2.671-0.519 0.45-1.647 0.883-1.91 1.548-0.451 1.139 0.254 0.861 1.168 1.125 1.93 0.557 3.526 1.894 4.855 3.362 1.87 2.066 3.84 6.16 2.398 8.862-0.839 1.571-1.688 3.302-3.554 3.694-0.698 0.147-1.431 0.036-2.14 0.201-2.831 0.664-4.952 3.123-7.934 3.439-2.561 0.271-5.318-0.315-7.899-0.378-3.317-0.08-6.904-3.727-7.816-6.75-0.199-0.659-1.631-5.862-0.293-5.856-2.413-0.01-4.741 0.045-7.15 0.509-2.317 0.446-4.932-0.709-7.171-0.322-1.837 0.316-5.144 0.174-7.011 0.176-1.777 2e-3 -1.777 2e-3 -4.107-0.851 0.398-0.721 0.948-1.028 1.701-1.405" fill="#EAEAEA"/>
 <path d="m197.25 210.25c-2.948-1.38-16.169-4.42-12.438-8.493 1.89-2.064 5.224-1.344 7.875-2.006 3.171-0.792 5.649-3.009 7.313-5.734 1.809-2.961 1.972-4.803 5.685-5.024 2.639-0.158 5.979 1.217 8.536 1.563 5.02 0.679 7.396-4.983 12.105-3.555 3.382 1.026 7.834 6.434 10.981 7.868 3.335 1.521 8.939 1.702 12.368 3.215 3.28 1.447 4.837 4.052 5.099 8.166 0.255 4.009-7.333 5.046-10.184 6.751-6.7 4.009-6.392-1.83-11.328-5.497-5.74-4.266-14.932-4.879-21.855-4.578-5.826 0.253-10.502 3.507-14.407 6.825" fill="#D3D3D3"/>
 <path d="m192 220.17c-0.184-0.079-0.267 0.107-0.362-0.138 0.571-0.861 0.488-1.861 0.892-2.77 0.875-1.97 1.065-3.707 2.64-5.398 1.283-1.378 2.858-2.467 4.404-3.524 2.778-1.899 6.162-3.382 9.444-3.967 3.949-0.703 8.262-1.202 12.319-0.406 2.718 0.533 4.963 0.478 7.569 1.755 3.674 1.799 7.781 4.076 10.393 7.29 1.27 1.563 2.808 3.254 3.672 5.001 0.922 1.863 1.679 3.754 2.037 5.824 0.317 1.834 0.679 3.559 0.845 5.391 0.163 1.808 0.124 3.23 0.528 5.013 0.445 1.967 0.597 4.248 0.777 6.272 0.117 1.313 0.327 3.01 0.628 4.379 0.497 2.26 1.656 4.281 2.065 6.558 0.441 2.453 0.41 5.091 1.382 7.32 1.075 2.47 0.847 3.995-0.025 6.529-0.774 2.248-2.514 3.31-3.768 5.384-1.782 2.948-2.183 6.125-4.312 8.658-2.061 2.452-4.286 3.944-6.972 5.909-3.716 2.719-7.858 4.965-12.692 4.729-2.771-0.136-4.795 0.041-7.04 1.535-2.011 1.34-3.832 0.624-6.075-0.139-5.022-1.707-10.404-3.063-14.859-5.827-2.342-1.453-3.704-2.997-3.825-5.886-0.091-2.175-0.273-4.345-0.385-6.52-0.106-2.068-0.196-2.957-1.083-4.634-1.213-2.294-0.699-6.396-0.699-9.03 0-3.199-0.667-6.201-0.667-9.459 1e-3 -2.99 0.667-5.708 0.667-8.729 0-2.791 0.141-5.565 0.167-8.343 0.042-4.546 0.64-9.323 2.085-13.565 0.685-2.013 2.077-4.322 3.749-5.713" fill="#FAE571"/>
 <path d="m269.33 208c0.183 1.503-0.702 3.476-0.991 4.959-0.396 2.029-0.585 4.17-0.916 6.249-0.522 3.285-1.082 6.453-0.9 9.938 0.317 0.164 0.777 0.236 1.125 0.17 0.068-3.655-0.193-7.03 0.608-10.788 0.373-1.747 0.714-3.39 1.112-5.103 0.356-1.538 1.333-3.468 1.27-5.066-0.346-0.132-0.769-0.251-1.141-0.192" fill="#848484" stroke="#000" stroke-miterlimit="10"/>
 <path d="m238.33 226.14c-0.135 1.673-0.88 3.327-1.316 4.938-0.418 1.543-1.71 2.709-1.62 4.4 2.072 0.107 4.754 0.166 6.751 0.818 1.508 0.492 2.904 1.872 4.58 1.869-0.14-1.712 0.573-6.269-0.264-7.73-1.155-2.018-4.631-3.852-7.131-3.118" fill="#2D2D2D"/>
 <path d="m267.66 247.84c-0.581 4.148-0.654 7.999-1.58 12.089-0.916 4.043-1.844 7.953-2.87 12-0.411 1.62-0.871 3.324-1.041 4.944-0.316 3.02 6.01 6.978 4.498 9.205-0.699 1.03-2.792 2.172-3.84 2.859-2.009 1.318-3.931 5.371-6.708 4.072-2.152-1.007-3.421-4.477-3.616-6.671-0.24-2.698-1.075-4.573-0.552-7.438 0.361-1.979 0.467-3.974 0.828-5.961 0.17-0.94 0.479-3.258 1.425-3.791 1.741-0.982 1.943 1.792 3.013 2.57 1.711-4.966 2.516-10.14 4.582-15.067 1.508-3.596 1.086-7.038 2.076-10.783 0.229-0.863 0.76-1.771 0.745-2.672-0.011-0.63-0.456-1.234-0.48-1.898-0.048-1.271 0.453-2.756 2.012-2.442 0.354 0.071 3.239 1.146 3.339 1.344 0.411 0.834-0.809 2.426-1.051 3.203-0.434 1.394-0.576 2.983-0.78 4.437z" fill="#FAE571"/>
 <path d="m202 224.15c-2.794-0.098-7.102 1.707-9.444 3.147-3.062 1.882-4.575 8.884-2.571 11.952-0.274-0.42 4.896-2.907 5.349-3.256 2.6-1.999 4.75-1.006 7.76-1.67-0.867-2.472-1.594-5.453-1.594-8.069" fill="#2D2D2D"/>
 <path d="m154.67 259.5c1.371-0.487 2.778-2.821 3.795-3.925 1.137-1.231 2.319-2.412 3.535-3.566 2.858-2.714 5.706-3.304 9.679-3.342 3.782-0.036 6.334 0.461 9.662 2.121 1.695 0.846 4.524 2.293 5.736 3.659 1.007 1.136 0.711 3.71 2.11 4.502 0.206-1.328 0.638-2.163 0.607-3.476-0.036-1.551-0.107-3.149-0.421-4.677-0.358-1.738-0.449-3.973-1.11-5.676-1.586-4.09-5.542-6.085-9.333-7.658-4.249-1.762-9.539-2.222-14-0.596-2.009 0.732-3.787 1.735-5.429 3-1.962 1.512-2.544 2.722-3.275 4.957-1.456 4.45-2.509 10.545-1.387 15.343" fill="#FAE571"/>
 <path d="m149.66 281.39c-0.352 2.087-0.55 4.154-1.289 6.168-0.891 2.431-1.817 4.89-2.202 7.432-0.159 1.051-0.339 2.087-0.763 2.97-0.422 0.878-0.946 1.18-1.044 2.359 2.979 0.711 5.424 2.345 8.473 3.024 5.291 1.18 11.245 1.114 16.632 0.993-1.129-2.974-1.976-5.89-3.579-8.583-1.313-2.206-0.067-5.025 2.773-5.312 2.229-0.224 4.894 1.713 6.334 3.232 1.633 1.722 3.579 3.637 4.791 5.695 0.593 1.008 0.843 2.758 2.062 3.244 1.158 0.461 2.468-0.467 3.576-0.743 1.493-0.372 3.098-0.579 4.615-0.869 1.133-0.217 2.84 0.09 3.868-0.273 2.648-0.936 0.403-4.881 2e-3 -6.883-0.436-2.172-0.631-4.447-0.908-6.622-0.328-2.576-0.77-5.081-1.171-7.635-0.222-1.412-0.342-5.121-1.512-6.084-0.514 1.769-1.07 4.239-2.351 5.766-1.461 1.74-4.27 3.386-6.282 4.443-3.869 2.034-7.462 2.831-11.818 2.798-5.604-0.042-8.987-2.145-12.032-6.504-1.035-1.48-1.852-2.905-2.677-4.509-1.087-2.113-1.692-4.48-2.295-6.75-0.177 2.211-0.65 4.774-1.207 6.915-0.508 1.965-1.653 3.69-1.996 5.728z" fill="#FAE571"/>
 <path d="m190.33 318.52c1.179-1.396 1.564-3.055 3.167-4.179 1.368-0.959 2.765-1.015 4.141-1.636 0.071 1.482 0.511 5.078-0.8 6.082-1.178 0.903-4.881 0.232-6.341 0.232" fill="#FAE571"/>
 <path d="m143.44 320.3c5.386 1.43 3.551-3.618 3.558-6.943 4e-3 -2.413-0.438-5.28-3.573-4.445-2.173 0.577-3.369 2.795-3.776 4.865-0.678 3.438 0.101 5.543 3.791 6.523z" fill="#FAE571"/>
 <path d="m92.667 270.34c1.865 0.331 2.692 4.492 2.991 6.037 0.379 1.96 0.662 4.428 0.346 6.459-0.419 2.697-2.622 4.8-4.792 6.15-1.135 0.706-2.333 1.386-3.721 1.519-1.11 0.107-2.229-0.146-3.311 0.159 0.033-1.583 2.235-2.982 2.694-4.649 0.334-1.213 0.048-2.588 0.108-3.843 0.088-1.838-0.467-1.971-1.779-3.632-1.223-1.55-1.314-3.66-2.333-5.324-1.646-2.688-2.929-5.869-3.997-8.84-0.557-1.547-1.772-3.078-0.245-4.026 0.897-0.558 2.611-0.663 3.716-0.669 0.618 2.837 2.248 4.897 4.152 7.297 1.324 1.669 2.726 6.749 5.153 6.179 0.019-0.382 0.11-0.935 0.017-1.316" fill="#FAE571"/>
 <path d="m86.5 193.25c-0.041 5.544 0.338 7.807 1.25 14.253 1.048 7.409 2.353 13.455 3.75 20.581 1.386 7.066 2.122 14.594 2.5 21.921 0.194 3.756-0.444 8.227 1.855 11.492 1.182 1.68 2.58 1.846 4.223 2.749 2.073 1.139 4.184 3.213 5.764 4.959 4.048 4.473 7.102 8.771 13.495 9.627 4.621 0.618 14.681-2.726 18.368-4.389 2.628-1.186 5.192-2.499 7.801-3.727 1.253-0.59 2.56-1.291 3.937-1.547 1.074-0.2 2.848 0.28 3.61-0.671 0.846-1.057 0.25-5.271 0.412-6.71 0.578-5.11 1.913-10.126 2.346-15.253 1.077-12.765-0.054-26.42-3.701-38.479-1.324-4.378-2.516-8.183-4.919-12.092-1.741-2.83-4.753-6.435-7.184-8.741-4.842-4.591-13.759-4.665-20.007-5.657-6.487-1.031-12.617 0.154-18.75 2.382-5.683 2.067-11.811 3.549-14.75 9.302" fill="#FBE670"/>
 <path d="m94.167 157.83c2.507-1.983 7.565-1.793 10.399-0.633 2.204 0.902 3.816 2.644 5.947 3.683 1.672 0.816 3.42 1.327 5.158 1.904 3.599 1.197 6.787 2.496 10.655 2.917 4.112 0.448 8.006 1.693 11.303 4.425 1.566 1.298 2.956 2.221 3.366 4.408 0.273 1.455 0.379 3.352 0.045 4.801-0.361 1.568-1.363 4.153-2.365 5.365-1.538 1.86-3.643-0.676-5.212-1.979-3.22-2.673-5.606-2.64-9.76-3.059-4.117-0.415-7.851 0.215-11.704 1.083-3.156 0.71-7.837 0.31-11 1-3.475 0.758-8.241 2.732-11 4.887-1.765 1.378-0.953 3.68-2.588 5.189-0.699 0.646-0.667 1.153-1.94 0.78-1.103-0.323-3.654-2-4.222-2.855-2.117-3.191-3.969-7.058-0.917-10.745 1.453-1.755 2.386-3.181 4.167-4.598 1.831-1.456 4.257-3.157 5.712-5.036 1.105-1.428 2.755-3.159 3.333-4.867 0.555-1.638 0.288-3.604 0.288-5.337" fill="#44A247"/>
 <path d="m93.5 163c-4.419-0.933-10.611-8.678-8.999-13.494 1.576-4.707 7.006-6.327 11.459-6.505 9.57-0.382 18.007 6.69 13.04 16.499" fill="none" stroke="#000" stroke-miterlimit="10"/>
 <path d="m93.833 162.83c-0.274-0.499-2e-3 -4.568 0.488-5.138 0.818-0.952 3.492-0.917 4.67-1.029 1.564-0.149 2.656 0.854 4.259 1.083 1.555 0.222 4.532 1.046 6.046 0.586 2.392-0.726 0.968-7.625-0.176-8.994-2.217-2.654-5.437-5.414-8.871-6.092-2.808-0.554-7.247-0.146-9.75 1-2.693 1.233-5.067 2.302-6 5.5-1.485 5.089 2.656 13.764 8.833 13.083" fill="#878787"/>
 <path d="m89.75 171.25c3.417-1.145 6.257-3.859 9.822-5.048 0.618-0.206 2.701-1.323 6.94-2.214 3.657-0.768 7.456-0.988 11.237-0.988" fill="none" stroke="#79BA70" stroke-miterlimit="10"/>
 <ellipse cx="172.3" cy="268.59" rx="18.958" ry="17.667" fill="#C1C1C0" stroke="#000" stroke-miterlimit="10"/>
 <path d="m273.33 194.34c0.01-1.837 0.109-3.669 0.184-5.503 0.477 0.31 0.916 0.8 1.292 1.167 0.107-1.956-0.314-4.094 0.679-5.825 0.879 0.463 0.459 1.577 1.351 1.998 0.633-1.238 3.17-2.061 4.48-1.978-0.615 0.652-1.399 1.463-1.464 2.458 2.293 0.09 3.374-0.555 5.661 0.351-0.532 0.494-2.439 1.021-2.502 1.838-0.104 1.344 3.15 3.223 3.131 4.976-2.695 0.271-4.853-1.587-7.481-1.631 0.63 0.718 1.108 1.592 1.754 2.291-3.155 0.27-5.906-1.313-9.084-1.308" fill="#B358A2" stroke="#000" stroke-miterlimit="10"/>
 <path d="m273.89 194.26c1.54-1.132 2.783-2.946 4.979-3.406-0.08 0.369 0.126 0.801-0.23 1.269 0.798-0.472 5.745-1.691 3.883 0.193 1.627-0.445 3.688 0.532 5.239 0.951-1.057 0.583-2.377 1.403-3.524 1.58 1.6-0.12 2.333 1.414 2.639 2.753-3.97 0.47-7.93-1.515-11.736-1.907" fill="#B358A2" stroke="#000" stroke-miterlimit="10"/>
 <path d="m269.17 192.34c0.477-1.53-0.855-3.5 0.163-5.32 0.165 0.169 0.693 0.329 0.85 0.481 0.475-1.468 1.331-2.726 1.981-4.078 0.598 0.562 0.288 1.589 0.394 2.4 1.009 0.087 1.824-0.966 2.932-0.961-0.399 0.813-0.903 1.675-0.964 2.581 1.163 0.146 2.45 0.022 3.646 0.089-0.823 0.703-2.558 1.307-3.117 2.283 0.657 0.175 1.371 0.199 2.031 0.483-2.618 1.589-5.175 2.946-6.75 5.708" fill="#B358A2" stroke="#000" stroke-miterlimit="10"/>
 <path d="m269.33 196.84c-1.29-1.605-2.976-3.594-4.794-4.641 0.799-0.046 1.654-0.077 2.427 0.087-2.015-1.479-4.532-2.456-5.915-4.596 1.412-0.216 2.694 0.584 3.798 1.307 0.19-1.409-0.909-3.418-0.823-5.135 1.19 0.095 3.227 3.227 3.75 4.288-0.768-0.411-0.506-1.858 0.049-2.56 1.868 0.843 0.563 3.696 3.521 2.409 0.703 1.874-1.037 4.823 0.152 6.327 0.999-0.558 1.603-1.527 2.821-1.798-1.656 2.081-3.647 4.256-5.151 6.478" fill="#B358A2" stroke="#000" stroke-miterlimit="10"/>
 <path d="m143.83 194.83c0 2.427-0.095 4.89 0.021 7.308 1.807 0.096 4.291-0.377 5.757 0.563-1.404-3.211-0.334-7.941-5.112-8.372" fill="#5B8952"/>
 <path d="m98.333 195c-4.239-2e-3 -7.88 1.966-11.008 4.829-1.447 1.325-1.41 3.058-1.026 4.833 0.238 1.104 0.283 3.454 0.773 4.391 0.738 1.412 1.04 0.607 2.375-0.36 1.552-1.124 3.139-2.12 4.968-2.733 2.187-0.733 4.222-1.041 6.515-1.475-0.063-1.444-0.829-2.679-0.894-4.142-0.069-1.551 0.122-3.41-0.871-4.675" fill="#5B8952"/>
 <path d="m274 197.5c0.987-0.318 1.732-1.149 2.574-1.694 1.022-0.663 2.202-0.883 3.242-1.547-2e-3 0.779-0.376 1.51-0.783 2.205 2.351-0.187 5.68 0.747 7.935 1.329-0.829 0.176-1.508 0.517-2.305 0.876 1.143 0.604 2.147 2.222 2.657 3.306-0.936 0.021-2.058-0.823-2.927-1.155 0.75 0.948 1.284 3.261 1.381 4.343-2.521-1.643-3.814-4.613-7.102-5.274 0.591 0.641 1.067 1.354 0.814 2.383-2.28 0.588-2.912-3.802-5.487-3.771" fill="#B358A2" stroke="#000" stroke-miterlimit="10"/>
 <path d="m265.65 195.91c-0.796-0.855-1.69-1.675-2.325-2.669 0.987 0.078 1.426 0.791 2.423 0.839-2.376-2.127-3.935-4.709-6.188-6.938 2.024 0.335 3.49 2.591 5.416 3.335 8e-3 -0.818-0.508-1.486-0.689-2.273 1.377 0.567 2.727 2.435 3.604 3.812 0.486-0.639 1.061-1.427 1.837-1.59-0.136 0.626-0.308 1.531-0.185 2.158 0.176 0.892 1.461 1.623 1.55 2.282 0.205 1.53-1.519 3.106-1.489 4.842-1.196-0.262-2.337-2.116-3.648-2.721" fill="#B358A2" stroke="#000" stroke-miterlimit="10"/>
 <path d="m270.33 195.5c0.554-0.691 0.41-1.958 0.222-2.82 0.846 0.045 1.469 0.64 2.252 0.798 0.169-1.235-0.13-2.633-0.923-3.618 0.999-0.126 1.679 1.012 2.591 1.285-8e-3 -0.806-0.03-1.727 0.697-2.14 0.714 0.582 0.925 1.784 1.657 2.174 0.552 0.294 1.978-0.029 2.62 0.022-1.011 0.574-2.007 1.138-1.668 2.104 0.164 0.466 2.583 1.955 3.046 2.336-1.27 0.111-2.932-0.568-4.16-0.454 0.56 0.119 1.375 1.606 1.782 1.899-1.465 0.602-4.549 0.35-5.261 2.071-0.211 0.51 0.319 1.813-0.177 2.153-0.479 0.328-2.893-1.134-3.36-1.316" fill="#B358A2" stroke="#000" stroke-miterlimit="10"/>
 <path d="m219.48 232.52c-1.585 3.346-4.905 5.649-8.744 5.649-5.375 0-9.733-4.516-9.733-10.083 0-5.57 4.358-10.084 9.733-10.084 4.031 0 7.49 2.538 8.968 6.158" fill="#C1C1C0" stroke="#000" stroke-miterlimit="10"/>
 <path d="m219.4 224.97c1.55-3.115 4.91-5.272 8.808-5.272 5.367 0 9.72 4.094 9.72 9.145 0 5.05-4.353 9.145-9.72 9.145-4.016 0-7.463-2.292-8.945-5.56" fill="#C1C1C0" stroke="#000" stroke-miterlimit="10"/>
 <path d="m87.054 283.3c-4.007 9.207-7.394 14.951-10.889 24.12-0.356 0.935 0.396-1.103 0 0" fill="none" stroke="#000" stroke-miterlimit="10"/>
 <path d="m87.811 189.05c-3.445 9.396 0.183 22.133 1.799 30.728 2.772 14.744 7.523 32.3 3.407 47.599-0.669 2.487-0.45 3.302-1.367 5.777" fill="none" stroke="#000" stroke-miterlimit="10"/>
 <path d="m134.98 323.11c0.188-0.358 0.375-0.72 0.559-1.083 3.983-7.858 7.014-16.933 10.488-25.665 4.377-11.005 5.021-22.539 7.806-34.15 5.051-21.056 3.117-48.857-7.704-67.854-3.76-6.601-11.776-11.933-20.776-14.912" fill="none" stroke="#000" stroke-miterlimit="10"/>
 <path d="m132.32 327.7c0.563-0.884 0.549-0.998 1.075-1.928" fill="none" stroke="#000" stroke-miterlimit="10"/>
 <path d="m262.17 276.88c2.444 3.2 3.776 5.752 6.03 9.184" fill="none" stroke="#000" stroke-miterlimit="10"/>
 <path d="m197.33 302.2c-1.735-4.886-2.636-8.76-3.698-13.821-1.922-9.158-3.428-18.925-3.428-28.307v-1.352 1.352c-2.028-4.843-0.479-33.877 1.389-40.558 3.961-14.16 17.454-17.984 30.678-15.768 8.816 1.478 13.97 4.496 19.228 11.928 2.628 3.714 3.204 5.886 4.132 10.29 1.424 6.759 1.39 14.147 2.886 20.682 1.219 5.325 1.307 10.966 3.345 16.087 1.404 3.525 2.929 5.945 5.352 8.992" fill="none" stroke="#000" stroke-miterlimit="10"/>
 <path d="m189.08 249.14c2.198-6.786-8.577-12.624-14.187-13.549-8.94-1.474-18.379 2.547-19.085 10.996-0.839 10.048-3.89 26.961-6.615 39.381-2.999 13.667-14.142 28.496-6.603 42.626 3.955 7.412 12.122 12.576 20.472 13.398 8.555 0.843 14.64-1.089 22.278-4.759 7.507-3.607 10.51-11.265 11.974-18.897 0.787-4.103 0.626-8.827-0.641-12.674-1.538-4.669-1.623-9.647-2.89-14.375-1.274-4.756-2.282-9.529-2.71-14.515-0.605-7.029-1.993-27.633-2.663-32.793" fill="none" stroke="#000" stroke-miterlimit="10"/>
 <ellipse cx="172.33" cy="265.6" rx="18" ry="17.667" fill="#C1C1C0" stroke="#000" stroke-miterlimit="10"/>
 <ellipse cx="172.3" cy="265.27" rx="14.372" ry="13.27" fill="#EFEFEF" stroke="#000" stroke-miterlimit="10"/>
 <path d="m220.43 223.35c1.184-3.684 4.645-6.35 8.73-6.35 5.063 0 9.167 4.094 9.167 9.145 0 5.05-4.104 9.145-9.167 9.145-4.37 0-8.027-3.052-8.945-7.135l-0.069-0.169c-0.854 4.168-4.551 7.304-8.981 7.304-5.063 0-9.167-4.095-9.167-9.145 0-5.051 4.104-9.145 9.167-9.145 4.276 0 7.87 2.921 8.882 6.873l0.383-0.523z" fill="#D6D6D6" stroke="#000" stroke-miterlimit="10"/>
 <ellipse cx="229.16" cy="226.14" rx="6.174" ry="6.456" fill="#EAEAE5" stroke="#000" stroke-miterlimit="10"/>
 <ellipse cx="211.17" cy="226.14" rx="6.13" ry="6.456" fill="#EAEAE5" stroke="#000" stroke-miterlimit="10"/>
 <path d="m265.33 228.66c0 9.582-1.082 18.933-4.027 28.028-1.398 4.319-2.266 9.047-3.573 13.569-0.996 3.445-2.7 6.576-4.066 10.069" fill="none" stroke="#000" stroke-miterlimit="10"/>
 <path d="m270.33 230c0.308 4.263-0.79 9.519-1.666 13.667-0.942 4.463-1.003 9.022-1.76 13.693-1.623 10.022-5.138 20.032-6.241 30.307" fill="none" stroke="#000" stroke-miterlimit="10"/>
 <path d="m265 239c0.957 0.424 2.418 1.415 3.491 1.166 1.122-0.261 1.567-1.988 1.841-3.129 0.561-2.348 0.362-5.543-0.49-7.638 1.86-0.298 2.816-2.032 2.287-3.862-0.464-1.605-2.962-2.404-2.771-3.907 0.125-0.985 2.187-0.854 1.979-2.096-0.173-1.029-1.869-1.466-2.845-1.664-1.609-0.326-3.546-0.227-4.521 0.972-0.984 1.208-2.668 3.434-2.306 5.195 0.379 1.846 2.563 3.018 3.132 4.796 0.418 1.31 0.265 3.522 0.463 4.843 0.222 1.474 0.074 3.135 0.074 4.657" fill="#EAEAEA"/>
 <path d="m265 228.33c-3.264-2.32-4.471-7.881 0.351-8.334 0.772-0.072 2.286-0.229 3.011-0.052 0.327 0.08 2.288 1.631 1.952 1.696-2.603 0.509-4.71 1.095-3.979 4.022" fill="none" stroke="#000" stroke-miterlimit="10"/>
 <path d="m269.32 208.85c1.576 1.229 4.501-3.629 4.657-4.806 0.208-1.563-1.182-2.104-2.707-2.701-1.042-0.408-2.706-0.981-3.314 0.383-0.602 1.347 0.144 6.172 1.364 7.124z" fill="#848484" stroke="#000" stroke-miterlimit="10"/>
 <path d="m264.33 219.33c0.707-1.608 3.083-1.935 4.668-1.466 0.746 0.221 2.169 1.008 2.335 1.67 0.197 0.789-0.563 1.943-1.336 2.129" fill="none" stroke="#000" stroke-miterlimit="10"/>
 <path d="m264.83 218.67c-0.429 0.227-1.509 1.654-1.612 2.091" fill="none" stroke="#000" stroke-miterlimit="10"/>
 <path d="m264.33 228.33c0.424 0.028 0.839 0.209 1.167 0.5" fill="none" stroke="#000" stroke-miterlimit="10"/>
 <path d="m268.17 200.84c-1.209-1.134-2.72-2.044-4.283-2.462 0.8-0.063 1.648-0.024 2.462-0.062-1.397-1.307-3.415-2.167-4.291-3.954 1.831 0.107 3.549 1.46 5.216 2.136 0.011-1.169 0.72-2.108 1.371-3.073 0.066 1.107-0.011 2.293 0.06 3.414 0.334-0.508 0.963-0.84 1.61-0.985-0.147 1.57 5e-3 5.233-1.979 4.82" fill="#B358A2" stroke="#000" stroke-miterlimit="10"/>
 <path d="m272.33 201.5c-0.375-1.825 3.188-3.966 4.572-4.438-0.521 0.813-0.619 1.828-1.151 2.604 1.673-1.479 4.084-1.719 6.244-1.437-0.392 0.572-1.244 0.951-1.672 1.575 2.495 0.235 6.242 4.674 6.277 7.183-1.175-0.361-2.216-1.798-3.245-2.489-0.127 2.718-0.073 5.113-1.833 7.426-1.057-2.983 0.127-5.115-2.833-7.246 0.058 1.26-0.259 3.013-0.826 4.118-0.109-1.652 0.278-3.611-1.183-4.835-1.238-1.038-3.054-1.2-4.35-2.461" fill="#B358A2" stroke="#000" stroke-miterlimit="10"/>
 <path d="m265.33 228.84c0 2.22 0.024 4.217-0.533 6.342-0.567 2.166-0.43 3.995 2.384 4.51 2.737 0.5 2.518-0.675 2.854-2.86 0.27-1.75 0.297-5.008 0.297-6.831" fill="none" stroke="#000" stroke-miterlimit="10"/>
 <path d="m203.05 308.16c4.844 1.414 11.734 1.44 13.451 1.523 5.372 0.261 6.75-0.257 12.167-0.989-2.229 4.043 0.573 8.602 3.992 10.67 3.705 2.242 8.316 2.563 12.655 1.943 2.556-0.365 5.146-1.879 7.555-2.663 1.867-0.608 4.235-1.662 5.472-3.26 2.326-3.006-0.251-8.344-2.878-10.224-1.97-1.41-4.047-2.825-6.042-4.32 1.142-1.391 2.998-2.047 4.408-3.117 1.672-1.268 3.378-2.796 5.167-3.85 1.711-1.008 9.795-4.718 8.504-7.362" fill="none" stroke="#000" stroke-miterlimit="10"/>
 <path d="m267.33 285.84c-1.511 0.531-3.512 2.598-4.87 3.662-1.84 1.442-3.737 2.685-5.703 3.967-4.535 2.957-9.23 5.283-14.383 7.071-3.109 1.079-6.046 2.499-9.164 3.467-2.454 0.762-4.958 1.188-7.49 1.656-5.086 0.942-11.093 2.072-16.353 1.307-1.777-0.259-2.352-0.229-4.386-0.504" fill="none" stroke="#000" stroke-miterlimit="10"/>
 <path d="m255.28 296.72c0.52 1.712 0.135 3.055 1.874 3.459 1.3 0.303 2.399 0.488 3.667 0.954 1.134 0.416 3.283 0.914 3.515 2.18 0.161 0.878-1.359 3.051-2.015 3.542 1.673 1.365 3.383 1.254 4.851 3.166 1.09 1.421 1.27 3.099 0.824 4.838-1.08 4.217-5.676 5.476-9.483 5.513-0.148 3.395-0.619 7.911-5.008 7.645-1.627-0.099-3.191-0.631-4.667-1.246-1.225-0.51-2.671-1.605-4.029-1.412 0.783 3.448-4.99 5.562-7.637 5.325-2.228-0.199-7.187-2.828-6.484-5.746-1.737 2.347-7.133 1.697-7.99-1.087-0.58-1.883-0.22-5.678 0.282-7.516-1.264-0.323-4.023-1.715-4.661-2.947-0.395-0.762-0.451-3.313 0.511-3.037" fill="none" stroke="#000" stroke-miterlimit="10"/>
 <path d="m225.5 310.85c-0.125 0.696-0.235 1.442-0.167 2.167" fill="none" stroke="#000" stroke-miterlimit="10"/>
 <path d="m225.5 315.68c0.499 0.335 0.843 0.941 1.167 1.5" fill="none" stroke="#000" stroke-miterlimit="10"/>
 <path d="m252.5 300.85c0.58 0.371 1.2 0.828 1.667 1.334" fill="none" stroke="#000" stroke-miterlimit="10"/>
 <path d="m228.5 319.02c0.529 0.066 0.923 0.449 1.167 1" fill="none" stroke="#000" stroke-miterlimit="10"/>
 <path d="m256 303.68c0.423-0.249 0.95-0.01 1.333 0.5" fill="none" stroke="#000" stroke-miterlimit="10"/>
 <path d="m231.33 321.18c0.733-0.133 1.41 0.265 1.834 0.833" fill="none" stroke="#000" stroke-miterlimit="10"/>
 <path d="m258.67 305.8c-0.044 0.331 0.013 0.648 0.166 0.938" fill="none" stroke="#000" stroke-miterlimit="10"/>
 <path d="m235.67 323.35h2.5" fill="none" stroke="#000" stroke-miterlimit="10"/>
 <path d="m260 308.35c0.259 0.911 0.16 1.886 0.333 2.834" fill="none" stroke="#000" stroke-miterlimit="10"/>
 <path d="m241.83 323.59c1.079 0.039 2.104 0.018 3-0.5" fill="none" stroke="#000" stroke-miterlimit="10"/>
 <path d="m260 313.18c0.267-0.042 0.226 0.465 0.167 1" fill="none" stroke="#000" stroke-miterlimit="10"/>
 <path d="m248.5 322.18c0.688 2e-3 1.324-0.085 2-0.167" fill="none" stroke="#000" stroke-miterlimit="10"/>
 <path d="m259.67 316.52c-0.536-0.063-0.829 0.56-1 1.167" fill="none" stroke="#000" stroke-miterlimit="10"/>
 <path d="m256.67 319.68c-0.254-0.069-0.49-0.015-0.667 0.166" fill="none" stroke="#000" stroke-miterlimit="10"/>
 <path d="m252.67 321.85c0.317-0.567 0.856-0.961 1.5-1.166" fill="none" stroke="#000" stroke-miterlimit="10"/>
 <path d="m251.83 263.18c-1.527 4.158-3.941 7.759-5.958 11.634-2.069 3.977-4.271 6.842-7.819 9.492-3.382 2.526-7.231 4.123-11.148 5.62-5.889 2.251-12.337 2.464-18.518 1.059-1.727-0.393-3.591-0.801-5.265-1.529-0.84-0.366-1.462-0.492-2.377-1.146-1.116-0.796-2.424-1.555-3.58-2.264-1.638-1.006-3.009-1.964-4.501-3.199" fill="none" stroke="#000" stroke-miterlimit="10"/>
 <path d="m254.67 268.18c-2.132 4.398-3.047 8.392-3 13.342 0.021 2.13 0.232 4.026 1.037 5.899 0.748 1.741 1.495 5.187 3.463 5.593" fill="none" stroke="#000" stroke-miterlimit="10"/>
 <path d="m223.5 289.18c-2.862-0.084-6.389 0.661-8.663 2.454-1.107 0.873-2.26 2.221-1.516 3.704 0.474 0.943 1.653 1.005 2.162 1.851 0.404 0.673 0.085 1.49 0.054 2.251-0.068 1.682 0.43 2.922 2.472 2.74 1.662-0.148 2.85-2.337 3.832-3.574 2.285-2.875 2.659-4.781 2.659-8.426" fill="#D3D3D3" stroke="#000" stroke-miterlimit="10"/>
 <path d="m229.33 291.85c1.395-0.418 3.072 2.401 3.838 3.454 1.3 1.788 1.937 2.113 4.137 2.021 0.063-0.865 0.391-1.885 0.201-2.771-0.181-0.844-1.529-1.854-1.32-2.705 0.255-1.029 2.018-1.215 2.352-2.333 0.498-1.67-0.505-1.842-1.91-1.999-1.525-0.171-3.799-0.287-5.288 0.037-1.701 0.37-2.178 2.962-2.009 4.629" fill="#D3D3D3" stroke="#000" stroke-miterlimit="10"/>
 <path d="m224.83 292.18c-0.136 3.611-1.091 7.225-2.149 10.68 0.809 0.641 1.759 0.463 2.753 0.499-0.512-1.504 1.119-2.827 2.038-1.257 0.111-2.113 0.134-9.095-2.308-9.755" fill="#D3D3D3" stroke="#000" stroke-miterlimit="10"/>
 <path d="m229.17 292.35c-0.637-0.605-1.807-0.673-2.512 0.158-1.043 1.229 0.228 2.226 0.853 3.184 1.252 1.92 1.56 4.328 2.667 6.278-0.027-1.934-0.011-3.577 2.311-3.775-0.753-1.145-1.593-2.186-2.152-3.475-0.44-1.014-0.539-3.039-2-3.037" fill="#D3D3D3" stroke="#000" stroke-miterlimit="10"/>
 <path d="m225.83 301.52c-0.043-1.48 0.167-2.826 0.167-4.334" fill="none" stroke="#000" stroke-miterlimit="10"/>
 <path d="m223.17 289.68c1.301 0.166 7.816-3.949 6.678 1.004-0.282 1.229-2.749 2.391-4.002 2.166-2.253-0.405-0.777-2.671-2.343-3.836" fill="#D3D3D3" stroke="#000" stroke-miterlimit="10"/>
 <path d="m232.68 349.44c0 1.58-0.494 1.86-0.41 3.337 0.111 1.976 1.619 2.167 3.5 1.833 3.819-0.679 4.707-4.554 5.374-8.008 0.121-0.627 0.169-0.621 0.193-1.268" fill="none" stroke="#000" stroke-miterlimit="10"/>
 <path d="m276.36 329.32c1.442 0.067 1.494-0.234 2.929-0.094 1.362 0.135 3.175 0.761 4.638 0.367 1.101-0.296 4.056-2.325 3.649-3.679-0.197-0.657-1.385-1.209-2.515-1.627" fill="none" stroke="#000" stroke-miterlimit="10"/>
 <path d="m232.68 353.86c-2.354-0.305-4.582 4.234-3.349 6.511 1.217 2.248 5.282 1.602 7.347 1.646 2.572 0.055 4.098-0.853 4.091-3.746-5e-3 -1.941 0.116-3.753-1.981-4.242-1.498-0.35-3.774 1.135-5.019 0.08" fill="#131313" stroke="#000" stroke-miterlimit="10"/>
 <path d="m284.76 329.91c1.439-0.678 5.873 2.154 7.74 2.37 1.3 0.15 3.126 0.699 4.263-0.029 1.074-0.688 1.529-2.801 1.497-4.007-0.097-3.558-3.845-3.855-6.658-4-1.668-0.085-2.79 0.063-4.087 1.163-1.374 1.164-1.429 3.07-2.755 4.503" fill="#131313" stroke="#000" stroke-miterlimit="10"/>
 <path d="m200.51 310.16c0.838 1.986 0.694 3.049 1.214 5.01 0.826 3.117 1.431 6.225 2.229 9.391 0.894 3.545 3.03 16.061 0.301 18.944" fill="none" stroke="#000" stroke-miterlimit="10"/>
 <path d="m267.75 285.25c4.276 4.22 7.542 8.932 9.883 14.633 1.961 4.775 6.951 12.441 12.867 12.367" fill="none" stroke="#000" stroke-miterlimit="10"/>
 <path d="m205.75 340.5c-2.062-0.062-5.416 1.238-7.249 2.201-2.917 1.533-2.063 4.6 1.055 5.61 5.604 1.816 10.25-2.243 15.457-2.81 6.271-0.682 10.946 4.765 17.305 2.205 5.766-2.32 9.283-7.69 15.938-6.957 2.514 0.277 5.05 1.668 7.506 2.145 3.133 0.607 5.132-1.163 7.494-2.906 2.641-1.95 5.341-3.522 7.033-6.438 1.365-2.353 3.029-5.953 5.698-7.237 1.298-0.624 2.669-0.417 3.999-0.806 2.228-0.65 2.125-1.284 3.215-3.282 1.484-2.723 3.29-5.777 6.192-6.979 1.913-0.792 6.379-3.045 3.417-5.775-1.744-1.608-5.364 0.044-7.061 0.78" fill="none" stroke="#000" stroke-miterlimit="10"/>
 <path d="m202.83 340.84c-2.723 0.629-8.053 1.149-8.333 4.991-0.2 2.747 2.93 5.079 5.337 5.175 3.706 0.146 6.545-0.396 9.959-1.339 2.926-0.809 6.579-1.988 9.875-1.031 2.082 0.604 3.792 1.611 5.958 1.702 1.54 0.065 3.167 0.097 4.705 1e-3 4.157-0.258 8.164-2.27 11.34-4.87 1.895-1.551 2.89-1.702 5.289-1.334 1.949 0.299 3.574 1.235 5.463 1.5 10.004 1.4 16.345-6.758 21.703-13.791 1.135-1.489 1.891-2.889 3.492-3.959 1.399-0.937 3.355-1.301 4.833-1.888 5.061-2.01 5.502-8.353 10.208-10.569 1.064-0.501 2.691-0.701 3.271-1.931 1.386-2.936-1.994-4.43-4.268-4.491" fill="none" stroke="#000" stroke-miterlimit="10"/>
 <path d="m196.33 209.67c-1.964-1.778-6.534-2.489-9.259-3.417-4.714-1.604-3.352-5.154 0.934-6.249 3.237-0.826 7.142 0.016 9.566-2.485 3.097-3.194 2.493-7.978 8.11-8.523 3.786-0.368 6.502 2.62 10.331 1.265 3.649-1.291 6.057-3.851 10.311-3.257 5.025 0.701 5.865 4.63 9.682 7.082 3.876 2.489 9.438 1.771 13.668 4.002 3.8 2.004 7.263 6.944 3.584 10.201-2.76 2.442-9.1 4.972-12.729 6.066" fill="none" stroke="#000" stroke-miterlimit="10"/>
 <path d="m195.33 203.67c3.268 0.499 5.671 2.126 8 4.333" fill="none" stroke="#000" stroke-miterlimit="10"/>
 <path d="m206.67 199.33c1.903 1.99 1.648 6.802 3.667 9.333" fill="none" stroke="#000" stroke-miterlimit="10"/>
 <path d="m216.67 208.67c0.109-2.781 3.736-7.641 6.333-8.667" fill="none" stroke="#000" stroke-miterlimit="10"/>
 <path d="m228.67 208.33c3.527-2.983 7.259-7.564 12.333-8" fill="none" stroke="#000" stroke-miterlimit="10"/>
 <path d="m236 213c-0.208-3.49 4.317-3.896 6.667-5" fill="none" stroke="#000" stroke-miterlimit="10"/>
 <path d="m190.33 230c2.336-2.681 8.139-5.563 11.667-5.854" fill="none" stroke="#000" stroke-miterlimit="10"/>
 <path d="m203.09 234.32c-3.339-0.658-12.181 2.913-13.843 5.723" fill="none" stroke="#000" stroke-miterlimit="10"/>
 <path d="m235.34 235.04c4.821 0.22 9.921 0.972 12.104 5.007" fill="none" stroke="#000" stroke-miterlimit="10"/>
 <path d="m246.38 230.42c-1.463-2.942-5.84-2.924-8.549-3.261" fill="none" stroke="#000" stroke-miterlimit="10"/>
 <path d="m219.5 268.48c-2.221-0.512-4.841-0.466-5.995-2.639-0.674-1.268-1.145-3.993-0.671-5.49 1.181-3.739 6.399 1.941 8.872 0.767 1.462-0.695 3.295-3.966 5.095-2.149 0.958 0.968 0.644 3.587 0.153 4.677-1.583 3.523-4.203 4.51-7.787 4.835" fill="#262626" stroke="#000" stroke-miterlimit="10"/>
 <path d="m144.67 300.35c2.518 0.198 5.131 1.92 7.586 2.715 2.002 0.648 4.238 0.67 6.32 0.859 3.116 0.283 7.886 0.26 11.093 0.26" fill="none" stroke="#000" stroke-miterlimit="10"/>
 <path d="m182.17 302.35c2.438-0.011 4.858-0.411 7.24-0.908 1.579-0.329 4.679-0.659 5.912-1.759" fill="none" stroke="#000" stroke-miterlimit="10"/>
 <path d="m140 318.52c1.316 0.987 4.323 0.891 6.037 1.204 1.667 0.305 3.226 0.411 4.937 0.484 0.226 4.862-1.429 10.247-6.97 10.811-3.229 0.329-4.001-3.22-4.337-5.674-0.19-1.396-0.842-5.871 0.333-6.825" fill="#4D90CD" stroke="#000" stroke-miterlimit="10"/>
 <path d="m189 318.85c1.479-0.188 3.427 0.329 5.037 0.333 1.546 3e-3 2.912-0.676 4.363-0.438-0.659 3.02-0.58 5.969-1.941 8.774-1.173 2.418-4.401 5.577-7.284 3.998-2.635-1.442-2.009-5.62-2.009-8.159 0-0.894-0.342-2.953 0.201-3.674 0.633-0.842 2.237-0.502 3.299-0.502" fill="#4D90CD" stroke="#000" stroke-miterlimit="10"/>
 <path d="m139.83 318.52c-1.06-2.226 0.843-10.012 4.037-10 3.821 0.015 3.296 8.252 3.296 10.834" fill="none" stroke="#000" stroke-miterlimit="10"/>
 <path d="m191.62 315.41c-0.524 0.931-1.164 2.24-1.122 3.271" fill="none" stroke="#000" stroke-miterlimit="10"/>
 <path d="m197.33 319.18c0.01-1.84 0.397-3.36 0.5-5.163 0.052-0.915-0.029-1.519-0.303-1.917" fill="none" stroke="#000" stroke-miterlimit="10"/>
 <path d="m174.83 341.02c2.407 2.071 2.37 6.311 4.492 8.666 2.611 2.899 5.128 3.29 8.187 1.506-1.424-1.743-4.078-3.171-4.812-5.412-0.684-2.09-0.973-4.681-1.2-6.926" fill="none" stroke="#000" stroke-miterlimit="10"/>
 <path d="m180.47 350.79c-1.524 3.558 3.262 3.882 5.9 4.699 1.371 0.425 3.505 0.972 3.986-0.992 0.42-1.714-1.841-2.82-3.05-3.607" fill="none" stroke="#000" stroke-miterlimit="10"/>
 <path d="m161.84 352.44c-2.482-0.326-6.846 4.462-2.771 5.695 1.647 0.498 3.872 0.192 5.406-0.403 2.664-1.035 2.68-2.15 2.687-4.884" fill="none" stroke="#000" stroke-miterlimit="10"/>
 <path d="m171.5 230.16c-0.166 1.835 0.667 3.872 0.667 5.833" fill="none" stroke="#000" stroke-miterlimit="10"/>
 <path d="m165.67 232.16c-0.056 0.496 1.158 1.923 1.528 2.629 0.629 1.198 1.399 2.319 1.639 3.704" fill="none" stroke="#000" stroke-miterlimit="10"/>
 <path d="m161.5 235.66c1.924 1.569 2.476 4.438 2.5 6.833" fill="none" stroke="#000" stroke-miterlimit="10"/>
 <path d="m174.5 239.82c-0.04-1.625 0.288-3.868 1.833-5" fill="none" stroke="#000" stroke-miterlimit="10"/>
 <path d="m181.5 232.66c-0.829 2.763-2.73 4.838-2.667 8" fill="none" stroke="#000" stroke-miterlimit="10"/>
 <path d="m185 238.82c-1.463 1.313-2.762 3.698-2.833 5.666" fill="none" stroke="#000" stroke-miterlimit="10"/>
 <path d="m158.33 236.16c-0.412 1.059 1.46 2.2 1.5 3.5" fill="none" stroke="#000" stroke-miterlimit="10"/>
 <path d="m121.02 203.39c-1.938 3.899-6 6.585-10.696 6.585-6.575 0-11.906-5.262-11.906-11.75 0-6.492 5.332-11.751 11.906-11.751 4.931 0 9.162 2.958 10.97 7.176" fill="#C1C1C0" stroke="#000" stroke-miterlimit="10"/>
 <path d="m120.92 194.59c1.896-3.63 6.006-6.144 10.773-6.144 6.565 0 11.89 4.771 11.89 10.656s-5.324 10.657-11.89 10.657c-4.912 0-9.129-2.672-10.942-6.479" fill="#C1C1C0" stroke="#000" stroke-miterlimit="10"/>
 <path d="m122.19 192.71c1.448-4.292 5.681-7.399 10.679-7.399 6.193 0 11.213 4.771 11.213 10.657 0 5.884-5.021 10.657-11.213 10.657-5.346 0-9.819-3.558-10.942-8.315l-0.085-0.197c-1.044 4.857-5.566 8.512-10.986 8.512-6.192 0-11.213-4.773-11.213-10.657 0-5.886 5.021-10.657 11.213-10.657 5.231 0 9.627 3.404 10.864 8.009l0.47-0.61z" fill="#D6D6D6" stroke="#000" stroke-miterlimit="10"/>
 <ellipse cx="132.87" cy="195.96" rx="7.552" ry="7.524" fill="#EAEAE5" stroke="#000" stroke-miterlimit="10"/>
 <ellipse cx="110.85" cy="195.96" rx="7.498" ry="7.524" fill="#EAEAE5" stroke="#000" stroke-miterlimit="10"/>
 <path d="m86.838 201.06c2.61-2.999 9.092-6.224 13.032-6.549" fill="none" stroke="#000" stroke-miterlimit="10"/>
 <path d="m100.96 204.68c-3.339-0.658-12.181 2.912-13.843 5.723" fill="none" stroke="#000" stroke-miterlimit="10"/>
 <path d="m141.78 201.89c3.061 0.14 6.233 0.494 8.701 1.766" fill="none" stroke="#000" stroke-miterlimit="10"/>
 <path d="m146.14 194.21c-0.667-0.069-1.302-0.124-1.866-0.194" fill="none" stroke="#000" stroke-miterlimit="10"/>
 <path d="m94 260.67c1.144-0.259 1.947 0.761 2.759 1.417 1.519 1.229 3.057 2.457 4.628 3.665 2.33 1.79 4.388 3.748 6.678 5.575 3.94 3.146 5.757 6.972 11.272 7.508 9.62 0.936 17.637-4.188 25.993-8.125 2.073-0.977 4.665-1.928 7.003-1.707" fill="none" stroke="#000" stroke-miterlimit="10"/>
 <path d="m92.667 280.67c1.33-5.157-2.307-8.589-5.167-12.333-1.729-2.262-3.384-4.768-4.507-7.414-0.965-2.274-2.514-5.038-2.326-7.586" fill="none" stroke="#000" stroke-miterlimit="10"/>
 <path d="m77.333 253.84c0 3.272 0.505 6.28 1.133 9.478 0.785 3.999 2.789 7.077 4.5 10.726 1.354 2.887 3.322 6.18 4.087 9.26 0.61 2.459-0.932 4.336-2.22 6.204" fill="none" stroke="#000" stroke-miterlimit="10"/>
 <path d="m97.999 345.93c-0.86 0.98-1.75 0.459-2.128 1.918-0.608 2.346-0.454 3.313 1.637 4.846 3.252 2.383 3.396-0.819 5.363-3.472 1.16-1.563 0.79 0.396 1.16-1.563" fill="none" stroke="#000" stroke-miterlimit="10"/>
 <path d="m75.275 338.51c-1.407-0.357 0 0-0.719 0.91-1.617 2.044-3.56 4.075-3.814 6.786-0.224 2.386 1.017 4.552 3.095 5.676 1.103-0.695 1.471-2.42 2.159-3.511 0.722-1.146 1.41-2.26 2.088-3.351 1.817-2.925 1.098-1.971 4.007-3.235" fill="none" stroke="#000" stroke-miterlimit="10"/>
 <path d="m95.167 349.02c-3.701-0.646-2.559 3.916-0.675 5.211 1.373 0.943 1.967 0.804 2.917 2.289 0.875 1.367 1.868 3.3 3.254 4.141 2.547 1.545 6.062 0.255 5.841-2.967-0.192-2.794-3.36-5.588-6.003-5.841" fill="none" stroke="#000" stroke-miterlimit="10"/>
 <path d="m71.167 347.85c-0.981 2.263-3.151 5.555-2.666 8.334 0.401 2.3 4.111 2.715 6.162 2.833 2.496 0.144 3.365-0.563 3.134-3.037-0.19-2.04-1.131-4.572-2.296-6.297" fill="none" stroke="#000" stroke-miterlimit="10"/>
 <path d="m76.833 254c-2.749 0.359-6.296-5.906-2.33-6.334 0.987-0.106 3.76 0.175 3.971 1.505 0.269 1.689-2.713 0.473-3.475 0.329" fill="none" stroke="#000" stroke-miterlimit="10"/>
 <path d="m80.333 253.33c-0.219-1.857 1.137-5.669-2.475-4.974-0.161 0.917 0.387 1.621 0.641 2.474" fill="none" stroke="#000" stroke-miterlimit="10"/>
 <path d="m73.617 247.91c-0.757-1.253 2.075-2.531 3.059-2.413 1.739 0.209 2.563 2.265 0.491 1.833" fill="none" stroke="#000" stroke-miterlimit="10"/>
 <path d="m74.833 244.83c-0.83 0.699 3.019-1.694 3.975-0.854 1.239 1.089 0.113 2.893-1.308 2.854" fill="none" stroke="#000" stroke-miterlimit="10"/>
 <path d="m75.78 249.49c-0.682 1.826-0.516 1.322-1.275 3.124" fill="none" stroke="#000" stroke-miterlimit="10"/>
 <path d="m76.957 252.86c1.282-3.23 3.001-6.149 4.168-9.391 2.75-7.636 10.946-24.941-2.262-27.306-4.797-0.858-9.342 3.135-5.992 7.586 1.544 2.052 3.534 3.581 5.139 5.56 1.313 1.62 1.388 3.977 1.491 6.025 0.157 3.15-0.918 5.681-2 8.664" fill="none" stroke="#000" stroke-miterlimit="10"/>
 <path d="m74.505 252.62c-1.015 2.407-2.086 4.781-3.18 7.096-1.816 3.842-3.539 7.729-5.427 11.537-1.928 3.889-3.59 8.106-5.398 12.021-1.189 2.574-2.837 4.537-4.287 7.037-0.843 1.452-3.675 5.159-2.05 6.825 4.041 4.142 8-7.007 10.147-13.814 0.679-2.155 1.177-3.875 1.438-4.537 0.759-1.926 1.969-3.634 2.686-5.573 1.223-3.311 2.773-6.52 4.163-9.763 1.358-3.169 2.836-6.4 3.996-9.625 0.117-0.324 0.238-0.645 0.364-0.962" fill="none" stroke="#000" stroke-miterlimit="10"/>
 <path d="m79.5 233.83c-0.139 3.142-3.142 8.989 2.667 8.5" fill="none" stroke="#000" stroke-miterlimit="10"/>
 <path d="m62.333 279.84c-1.674 0.561-2.143 4.401-3.17 5.869-1.489 2.126-3.153 4.499-4.311 6.809-1.877 3.743-5.193 6.894-6.815 10.817-0.713 1.726-1.34 3.386 0.925 4.051 1.018 0.299 3.964 1.116 4.87 0.92 2.522-0.548 3.408-8.445 4.335-10.675 1.387-3.335 3.326-6.644 4.686-9.965 0.729-1.779 0.93-3.438 1.438-5.321 0.292-1.083 0.696-1.507-0.441-2.174-0.73-0.429-1.997-0.286-2.518 0.336" fill="#351D25" stroke="#000" stroke-miterlimit="10"/>
 <path d="m92.167 270.01c1.938 0.912 3.178 4.648 3.713 6.685 0.59 2.246 0.529 4.354-0.306 6.476-2.218 5.638-6.852 8.007-12.74 8.007" fill="none" stroke="#000" stroke-miterlimit="10"/>
 <path d="m133.4 325.78c2.593 0.295 2.838-1.646 3.203-3.903 0.417-2.578 0.842-5.117 2.568-7.192" fill="none" stroke="#000" stroke-miterlimit="10"/>
 <path d="m77.858 303.39c-0.617 2.034-4.397 3.567-2.897 5.757 1.468 2.144 5.712 3.11 8.095 3.784 4.387 1.242 8.597 2.998 12.899 4.476 6.562 2.253 13.163 5.17 19.999 6.361 5.76 1.004 11.671 1.357 17.442 2.013" fill="none" stroke="#000" stroke-miterlimit="10"/>
 <path d="m75 309c-2.683 8.295-8.686 21.069-0.806 28.486 3.244 3.053 7.593 4.994 12.043 5.264 2.597 0.157 4.3 0.343 6.068-1.488 1.632-1.69 3.297-4.302 3.968-6.52-1.065 1.446-2.117 4.416-2.481 6.3-0.655 3.395 1.333 3.979 4.206 4.89 10.088 3.195 17.668 1.346 25.551-5.439 2.451-2.109 4.015-4.382 5.757-6.986 1.111-1.661 3.415-4.271 2.943-6.256" fill="none" stroke="#000" stroke-miterlimit="10"/>
 <path d="m92.5 267.75c5.44 2.675 7.94 13.415 4.751 18.5-2.2 3.508-5.053 6.676-9.495 7-1.114 0.081-3.543 0.42-4.562-1e-3 -2.174-0.898-0.83-2.404 1.306-2.249" fill="none" stroke="#000" stroke-miterlimit="10"/>
 <path d="m92.75 268.5c0.081-0.271 8e-3 -0.455-0.217-0.556-1.258 0.375-0.823 1.407 0.134 2.396" fill="none" stroke="#000" stroke-miterlimit="10"/>
 <path d="m75.25 305.25c7e-3 4.459 10.022 5.896 13.256 7.014 2.488 0.86 5.334 1.105 7.738 2.238 2.442 1.15 4.908 2.355 7.548 3.43 9.535 3.878 20.969 5.318 31.458 5.318" fill="none" stroke="#000" stroke-miterlimit="10"/>
 <path d="m123.75 252.5c-2.665-1.557-7.442-5.691-8.25-0.774-0.938 5.716 4.829 8.308 9.683 8.524 2.409 0.107 4.882 0.105 6.55-1.807 1.12-1.282 2.43-4.538 2.271-6.37-0.596-6.881-7.34 0.835-9.755 1.177l-0.499-0.75z" fill="#262626" stroke="#000" stroke-miterlimit="10"/>
 <path d="m108.18 276.89c1.673 0.861-2.729 3.274-3.682 4.111-1.515 1.33-1.737 1.141-1.762 3.259-0.028 2.455-0.033 6.82 0.355 9.202 2.584 0.182 5.517-3.137 7.379-4.522 2.105-1.566 2.086-1.379 2.222-4.4 0.061-1.368 0.292-3.048-0.194-4.288" fill="#5B8851" stroke="#000" stroke-miterlimit="10"/>
 <path d="m144.25 277.75c-0.917 3.416-7.391 6.559-7.28 9.859 0.105 3.138 2.672 6.212 2.582 9.621 2.444-2.186 5.789-6.376 6.198-9.543 0.474-3.667-1.355-6.509-1.5-9.937" fill="#5B8851" stroke="#000" stroke-miterlimit="10"/>
 <path d="m102 295.5c-2.581 0.978-4.583 3.068-6.763 4.694-3.063 2.284-1.522 3.179-0.974 6.543 0.197 1.207-0.138 7.094 1.176 7.072-0.042 0 4.248-4.308 4.73-4.704 1.109-0.911 3.396-2.362 3.824-3.611-2.302-1.085-2.243-6.743-2.243-8.994l0.25-1z" fill="#5B8851" stroke="#000" stroke-miterlimit="10"/>
 <path d="m137.75 301.75c-3.047 0.645-4.781 4.406-7.725 6.488 0.792 3.842 2.17 7.754 2.958 11.504 2.016-2.05 5.228-5.538 6.022-8.229 0.771-2.613-1.256-6.803-1.255-9.763" fill="#5B8851" stroke="#000" stroke-miterlimit="10"/>
 <path d="m82.5 294.25c-1.005 2.063 1.651 4.6 1.029 6.262-0.518 1.386-4.911 3.782-6.279 4.988" fill="#5B8851" stroke="#000" stroke-miterlimit="10"/>
 <path d="m124.5 281.75c-1.82 0.781-5.232 4.091-5.773 5.97-0.856 2.972 1.755 6.599 2.256 9.261 1.412-0.554 7.885-4.533 8.534-6.17 0.51-1.287-0.746-3.647-1.016-5.055-0.362-1.883-0.851-3.162-1.5-5.006" fill="#5B8851" stroke="#000" stroke-miterlimit="10"/>
 <path d="m120.75 301.75c-2.787 0.518-5.249 3.121-7.441 4.755-2.406 1.795-1.779 1.805-1.116 4.535 0.712 2.936 5e-3 6.839 1.81 9.228 2.668-4.504 6.021-6.678 10.558-8.757-1.977-3.012-2.206-6.812-4.311-9.761" fill="#5B8851" stroke="#000" stroke-miterlimit="10"/>
 <path d="m77 255.5c0 1.369-0.466 3.416 0.689 4.212 0.889 0.613 3.824 1e-3 4.573-0.645 1.298-1.119 1.524-3.357-0.207-4.085-1.259-0.53-3.301 0.594-4.556 0.768" fill="#E94B4B" stroke="#000" stroke-miterlimit="10"/>
 <path d="m87 190.5c2.027-0.193 3.676-1.847 5.531-2.699 3.269-1.501 6.928-2.889 10.4-3.665 3.761-0.841 7.862-1.796 11.637-2.162 3.363-0.326 6.844 0.188 10.225 0.025 3.24-0.156 5.529 0.413 8.67 0.727-4.638-3.16-8.998-2.615-14.311-2.579-4.275 0.029-8.578 0.69-12.842 1.347-3.627 0.559-6.507 1.392-9.867 2.062-3.394 0.677-8.832 3.597-9.444 7.694" fill="#ccc" stroke="#000" stroke-miterlimit="10"/>
 <path d="m84.5 192c-0.584-4.538 5.874-8.922 9.194-10.756 4.151-2.292 9.654-3.893 14.062-4.938 5.369-1.273 11.287-0.807 16.832-0.806 2.867 0 14.918 2.339 14.163 6.75" fill="none" stroke="#79BA70" stroke-miterlimit="10"/>
 <path d="m81.25 189.75c3.409-4.875 7.115-9.181 12.208-12.036 4.301-2.41 9.84-3.578 14.957-4.158 6.212-0.705 12.734-0.854 19.07-0.562 5.659 0.261 8.961 2.637 13.516 5.506" fill="none" stroke="#79BA70" stroke-miterlimit="10"/>
 <path d="m93.5 163.5c2.184-3.933 10.506-5.704 14.5-4.25" fill="none" stroke="#79BA70" stroke-miterlimit="10"/>
 <path d="m79.75 188c1.685-0.867 2.753-5.332 4.495-6.998 2.429-2.324 5.776-4.275 8.776-5.697 4.854-2.3 9.638-3.123 14.939-3.543 5.298-0.42 10.863-1.463 16.3-1.998 6.173-0.607 10.04 2.392 15.74 3.986" fill="none" stroke="#79BA70" stroke-miterlimit="10"/>
 <path d="m93 167.25c4.953-4.65 11.347-6 18.624-6" fill="none" stroke="#79BA70" stroke-miterlimit="10"/>
 <path d="m80 184.25c-0.389-2.719 5.869-7.09 7.999-8.743 2.729-2.117 5.083-3.77 8.265-5.075 5.006-2.054 10.26-2.839 15.68-3.57 4.077-0.549 7.911-0.218 11.918 0.194 3.901 0.401 8.187 2.801 11.889 2.694" fill="none" stroke="#79BA70" stroke-miterlimit="10"/>
 <path d="m82.5 177.25c-1.291 3.623 1.545 8.619 4.5 10.75" fill="none" stroke="#5B8952" stroke-miterlimit="10"/>
 <path d="m86.5 174c0 3.012-0.306 10.502 2.75 12.25" fill="none" stroke="#5B8952" stroke-miterlimit="10"/>
 <path d="m90.5 170.5c0.17 5.834-1.614 9.671 3.5 14.25" fill="none" stroke="#5B8952" stroke-miterlimit="10"/>
 <path d="m96.25 158c-0.019 6.181-4.72 20.36 1.75 24.5" fill="none" stroke="#5B8952" stroke-miterlimit="10"/>
 <path d="m99.743 157.25c0.129 5.326-2.209 10.987-1.993 16.263 0.099 2.403 0.343 7.93 3.25 8.237" fill="none" stroke="#5B8952" stroke-miterlimit="10"/>
 <path d="m103.25 157.75c-1.615 2.501-0.089 10.318-0.251 13.819-0.123 2.668-1.784 6.698-0.249 9.017" fill="none" stroke="#5B8952" stroke-miterlimit="10"/>
 <path d="m133.75 169c4.532-1.02 3.324 11.708 1.5 14" fill="none" stroke="#5B8952" stroke-miterlimit="10"/>
 <path d="m128.5 166.5c5.591 0.635 6.872 11.355 2.24 13.59" fill="none" stroke="#5B8952" stroke-miterlimit="10"/>
 <path d="m125.25 166c2.127-0.216 2.144 6.488 2 8.198-0.203 2.408-0.342 3.39-1.902 5.244" fill="none" stroke="#5B8952" stroke-miterlimit="10"/>
 <path d="m120.5 164.75c2.437 0.854 1.605 8.046 1.25 10.123-0.354 2.071-1.527 1.888-1.764 3.882" fill="none" stroke="#5B8952" stroke-miterlimit="10"/>
 <path d="m116 163.25c0 6.886 1.282 10.511-2.75 15.991" fill="none" stroke="#5B8952" stroke-miterlimit="10"/>
 <path d="m111.25 162c0 5.713 1.493 13.836-2.969 18.263" fill="none" stroke="#5B8952" stroke-miterlimit="10"/>
 <path d="m106 158.5c0.214 4.2 0.174 9.151-0.499 13.749-0.393 2.683 0.22 5.52-0.773 8.014" fill="none" stroke="#5B8952" stroke-miterlimit="10"/>
 <path d="m119 165.25c1.191 5.866-1.313 9.331-2.75 14.5" fill="none" stroke="#5B8952" stroke-miterlimit="10"/>
 <path d="m128.75 166.25c1.038 0.685 0.579 4.842 0.5 6.487-0.13 2.733-1.51 4.202-2 6.763" fill="none" stroke="#5B8952" stroke-miterlimit="10"/>
 <path d="m138.75 174.25c1.615 1.097-2.013 8.176-2.5 10" fill="none" stroke="#5B8952" stroke-miterlimit="10"/>
 <path d="m123.25 164.75c2.695 3.126 0.237 11.534-1.5 14.75" fill="none" stroke="#5B8952" stroke-miterlimit="10"/>
 <path d="m113.5 162c0 3.26-0.465 6.246-0.806 9.444-0.304 2.853-2.082 5.56-2.194 8.306" fill="none" stroke="#5B8952" stroke-miterlimit="10"/>
 <path d="m108.5 159c1.709 1.185 1.243 9.48 1.006 11.783-0.351 3.412-2.421 7.135-4.006 10.217" fill="none" stroke="#5B8952" stroke-miterlimit="10"/>
 <path d="m93 167.25c0 5.607-0.282 11.801 2.25 16.75" fill="none" stroke="#5B8952" stroke-miterlimit="10"/>
 <path d="m108.25 153c-0.239-0.224-0.546 0.027-0.48-0.501 0.484-0.318 0.81-0.947 1.23-1.249" fill="none" stroke="#6D6D6D" stroke-miterlimit="10"/>
 <path d="m112.5 150.25c-0.83 1.033-1.476 2.124-2.5 3" fill="none" stroke="#6D6D6D" stroke-miterlimit="10"/>
 <path d="m108.75 145.5c-1.364-0.375-2.402 1.706-2.75 3" fill="none" stroke="#6D6D6D" stroke-miterlimit="10"/>
 <path d="m99 140.25c0.023 1.625 1.294 3.942 1.5 6" fill="none" stroke="#6D6D6D" stroke-miterlimit="10"/>
 <path d="m93.5 144.25c1.011 0.918 1.911 1.934 1.5 3.5" fill="none" stroke="#6D6D6D" stroke-miterlimit="10"/>
 <path d="m84.5 149.75c2.024-0.296 3.903 1.373 4.75 3" fill="none" stroke="#6D6D6D" stroke-miterlimit="10"/>
 <path d="m85.5 146.25c1.343-0.848 2.516 0.734 3.5 1.75" fill="none" stroke="#6D6D6D" stroke-miterlimit="10"/>
 <path d="m89.75 156c-1.462 1.309-4.082 4.991-2.5 7" fill="none" stroke="#6D6D6D" stroke-miterlimit="10"/>
 <path d="m90.25 160.5c-0.081-0.595 0.196-1.418 0.343-1.96 0.216-0.064 0.435-0.078 0.657-0.04" fill="none" stroke="#6D6D6D" stroke-miterlimit="10"/>
 <path d="m108.25 156c1.15-0.606 2.422-0.936 3.75-0.75" fill="none" stroke="#6D6D6D" stroke-miterlimit="10"/>
 <path d="m105.5 154.75c1.072-1.93 2.692-3.899 3.5-5.75" fill="none" stroke="#6D6D6D" stroke-miterlimit="10"/>
 <path d="m104 144.25c1.516 0.691-2.189 7.361-2 9.25" fill="none" stroke="#6D6D6D" stroke-miterlimit="10"/>
 <path d="m97.5 139.5c-2.14 2.769-0.98 7.822-1.75 11.25" fill="none" stroke="#6D6D6D" stroke-miterlimit="10"/>
 <path d="m88.25 142.75c0.296 2.483 1.923 7.474 3.5 9.5" fill="none" stroke="#6D6D6D" stroke-miterlimit="10"/>
 <path d="m81.75 150.25c1.41 0.307 2.317 0.8 3.553 1.434 2.174 1.115 3.959 3.738 6.197 4.316" fill="none" stroke="#6D6D6D" stroke-miterlimit="10"/>
 <path d="m94.5 154c0.525-1.433-0.552-3.054-0.838-4.61-0.48-2.609-0.822-5.48-0.912-8.14" fill="none" stroke="#6D6D6D" stroke-miterlimit="10"/>
 <path d="m101.75 150.75c1.27-1.96-0.476-6.968 3-9" fill="none" stroke="#6D6D6D" stroke-miterlimit="10"/>
 <path d="m99.25 147.5c1.532-2.549 2.397-5.939 3.5-8.75" fill="none" stroke="#6D6D6D" stroke-miterlimit="10"/>
 <path d="m105.5 151.5c1.368-0.492 2.537-1.611 4-1.75" fill="none" stroke="#6D6D6D" stroke-miterlimit="10"/>
 <path d="m108.75 157.25c1.851-1.39 4.943-4.563 7.25-1.5" fill="none" stroke="#6D6D6D" stroke-miterlimit="10"/>
 <path d="m90 164.5c0-1.018-0.548-2.995 0.759-3.216 1.082-0.183 1.485 0.917 1.491 1.716" fill="none" stroke="#6D6D6D" stroke-miterlimit="10"/>
 <path d="m88.5 140.25c0 2.041 0.629 5.621-0.25 7.25" fill="none" stroke="#6D6D6D" stroke-miterlimit="10"/>
 <path d="m96 146.5c-1.103-1.913-1.276-5.35 1-6.5" fill="none" stroke="#6D6D6D" stroke-miterlimit="10"/>
 <path d="m102.25 149.5c1.537-3.026 2.57-4.203 5.75-5" fill="none" stroke="#6D6D6D" stroke-miterlimit="10"/>
 <path d="m108.75 150.75c0.802-1.022 2.243-0.994 3.5-1" fill="none" stroke="#6D6D6D" stroke-miterlimit="10"/>
 <path d="m109.75 154.75c1.976-0.844 3.839 0.361 5.25 1.75" fill="none" stroke="#6D6D6D" stroke-miterlimit="10"/>
 <path d="m90.5 155c-3.688 0-5.967-2.863-9.75-2.5" fill="none" stroke="#6D6D6D" stroke-miterlimit="10"/>
 <path d="m84.25 149.25c0.37-0.996-0.655-1.854-1.5-2.5" fill="none" stroke="#6D6D6D" stroke-miterlimit="10"/>
 <path d="m86.25 155.5c-1.444-0.692-2.929 0.841-3.25 2.25" fill="none" stroke="#6D6D6D" stroke-miterlimit="10"/>
 <path d="m88.5 158.25c-1.419-0.014-2.088 2.062-2.25 3.25" fill="none" stroke="#6D6D6D" stroke-miterlimit="10"/>
 <path d="m87.25 145.5c1.278 0.582 3.033 1.876 3.75 3" fill="none" stroke="#6D6D6D" stroke-miterlimit="10"/>
 <path d="m98.25 152.5c1.441-1.594-0.635-5.222 1.5-6.5" fill="none" stroke="#6D6D6D" stroke-miterlimit="10"/>
 <path d="m102 152.75c0.517-0.691 0.971-1.926 1.724-2.749 1.738-1.899 4.158-1.638 6.276-3.001" fill="none" stroke="#6D6D6D" stroke-miterlimit="10"/>
 <path d="m110.5 153.5c-1.101-2.095 4.795-0.772 5.75 0" fill="none" stroke="#6D6D6D" stroke-miterlimit="10"/>
 <path d="m105.25 153.25c0.361-1.987 3.701-3.06 5.5-3" fill="none" stroke="#6D6D6D" stroke-miterlimit="10"/>
 <path d="m109.25 156.25c0.712-0.725 1.799-0.663 2.75-0.25" fill="none" stroke="#6D6D6D" stroke-miterlimit="10"/>
 <path d="m97.75 156.5c-0.648-2.346-4.757-5.122-7.25-5.5" fill="none" stroke="#6D6D6D" stroke-miterlimit="10"/>
 <path d="m92.75 156.75c0.028-1.394-6.654-3.942-8.25-5" fill="none" stroke="#6D6D6D" stroke-miterlimit="10"/>
 <path d="m99.5 155.5c1.004-2.288-0.966-7.706 2.25-9.25" fill="none" stroke="#6D6D6D" stroke-miterlimit="10"/>
 <path d="m105.5 155c-2.467-1.403 1.625-4.271 3.25-4.25" fill="none" stroke="#6D6D6D" stroke-miterlimit="10"/>
 <path d="m94.5 151c0.958-2.911 0.306-6.003-2.25-8" fill="none" stroke="#6D6D6D" stroke-miterlimit="10"/>
 <path d="m88.25 149c-0.767-1.527-3.044-3.082-4.75-3.25" fill="none" stroke="#6D6D6D" stroke-miterlimit="10"/>
 <path d="m88.5 157c-2.226 0-4.987-0.509-7 0.25" fill="none" stroke="#6D6D6D" stroke-miterlimit="10"/>
 <path d="m91.5 159.25c-2.2 1.154-4.369 1.752-6 3.75" fill="none" stroke="#6D6D6D" stroke-miterlimit="10"/>
 <path d="m91.25 152.75c-0.933-1.716-4.86-3.038-6.75-3" fill="none" stroke="#6D6D6D" stroke-miterlimit="10"/>
 <path d="m92 147.75c-1.653-1.79-1.714-5.48-1-7.75" fill="none" stroke="#6D6D6D" stroke-miterlimit="10"/>
 <path d="m96 147.25c1.587-0.12 2.049-3.99 4.25-5" fill="none" stroke="#6D6D6D" stroke-miterlimit="10"/>
 <path d="m97 151.25c3.207-1.339 5.375-4.385 9.25-5.25" fill="none" stroke="#6D6D6D" stroke-miterlimit="10"/>
 <path d="m103.25 151.5c1.972-0.376 4.269-1.457 6.25-1.25" fill="none" stroke="#6D6D6D" stroke-miterlimit="10"/>
 <path d="m106 155.5c3.278-0.638 7.519-2.86 10.25 0.25" fill="none" stroke="#6D6D6D" stroke-miterlimit="10"/>
 <path d="m100.75 155.5c-1.744-1.75-3.256-3.758-5-5.5" fill="none" stroke="#6D6D6D" stroke-miterlimit="10"/>
 <path d="m94.25 155.75c-1.333-0.291-2.392-1.353-3.75-1.75" fill="none" stroke="#6D6D6D" stroke-miterlimit="10"/>
 <path d="m92.5 158.75c-1.469 0.148-2.716-0.356-4-0.75" fill="none" stroke="#6D6D6D" stroke-miterlimit="10"/>
 <path d="m99.75 154.5c-0.082-3.175 1.836-5.58 3.5-8" fill="none" stroke="#6D6D6D" stroke-miterlimit="10"/>
 <path d="m103.5 153.25c0.086-3.132 3.495-5.049 6.25-5.25" fill="none" stroke="#6D6D6D" stroke-miterlimit="10"/>
 <path d="m107.5 156.25c1.563-0.583 2.612-2.016 4.25-2.5" fill="none" stroke="#B2B3B3" stroke-miterlimit="10"/>
 <path d="m84 147.5c1.762 1.841 5.182 1.755 6.75 3.25" fill="none" stroke="#B2B3B3" stroke-miterlimit="10"/>
 <path d="m94.75 152.5c-0.252-2.051 2.63-4.453 4-5.75" fill="none" stroke="#B2B3B3" stroke-miterlimit="10"/>
 <path d="m105.25 147c-2.115 0.693-4.396 4.417-4 6.75" fill="none" stroke="#B2B3B3" stroke-miterlimit="10"/>
 <path d="m93.5 141.75c0 2.813-0.317 5.491 1 8" fill="none" stroke="#B2B3B3" stroke-miterlimit="10"/>
 <path d="m84.25 146.5c2.483-0.199 3.473 2.691 4.75 4.25" fill="none" stroke="#B2B3B3" stroke-miterlimit="10"/>
 <path d="m82.25 160c1.232-1.115 3.732-2.208 5.5-2.25" fill="none" stroke="#B2B3B3" stroke-miterlimit="10"/>
 <path d="m92 158c-1.009 1.183-1.644 2.371-1.75 4" fill="none" stroke="#B2B3B3" stroke-miterlimit="10"/>
 <path d="m97 155.5c0.012-2.16-0.328-5.821 2-6.75" fill="none" stroke="#B2B3B3" stroke-miterlimit="10"/>
 <path d="m105.25 152.25c0.113-1.153 0.17-2.593 1-3.5" fill="none" stroke="#B2B3B3" stroke-miterlimit="10"/>
 <path d="m94.25 140.75c-2.439 2.809-4.823 6.336-4.5 10.25" fill="none" stroke="#B2B3B3" stroke-miterlimit="10"/>
 <path d="m85 144c1.338 2.151 1.859 4.704 3.75 6.5" fill="none" stroke="#B2B3B3" stroke-miterlimit="10"/>
 <path d="m98 143c-0.918 1.581-1.322 4.554-1.25 6.75" fill="none" stroke="#B2B3B3" stroke-miterlimit="10"/>
 <path d="m104.5 145.5c-0.81 1.721-0.794 3.61-0.75 5.5" fill="none" stroke="#B2B3B3" stroke-miterlimit="10"/>
 <path d="m110.75 150.25c-2.309 0.291-6.807 3.924-7 6.25" fill="none" stroke="#B2B3B3" stroke-miterlimit="10"/>
 <path d="m113.25 156h-4.5" fill="none" stroke="#B2B3B3" stroke-miterlimit="10"/>
 <path d="m87.5 143.25c1.699 1.516 1.876 3.315 3 5.25" fill="none" stroke="#B2B3B3" stroke-miterlimit="10"/>
 <path d="m81.25 148.5c2.646 1.635 5.461 3.473 7 6.25" fill="none" stroke="#B2B3B3" stroke-miterlimit="10"/>
 <path d="m91.75 155.25c-0.883 2.545-3.092 5.626-4.75 7.75" fill="none" stroke="#B2B3B3" stroke-miterlimit="10"/>
 <path d="m93 152.25c-3.077 0.432-5.047 5.866-6.75 8.25" fill="none" stroke="#B2B3B3" stroke-miterlimit="10"/>
 <path d="m96 142.75c-1.97 1.803-0.717 4.992-1.75 6.75" fill="none" stroke="#B2B3B3" stroke-miterlimit="10"/>
 <path d="m107 148.25c-2.715-0.331-3.545 1.859-5.75 2" fill="none" stroke="#E2E2E2" stroke-miterlimit="10"/>
 <path d="m95.5 149.25c-1.85-2.448-4.526-2.762-7.25-3.5" fill="none" stroke="#E2E2E2" stroke-miterlimit="10"/>
 <path d="m97.5 146c-2.219-1.174-4.319-3.827-7-3.75" fill="none" stroke="#E2E2E2" stroke-miterlimit="10"/>
 <path d="m90 151.25c-1.302-1.102-5.911-1.114-7.75-1" fill="none" stroke="#E2E2E2" stroke-miterlimit="10"/>
 <path d="m87.75 151.5c2.347 1.156 5.17 2.492 7.25 3.75" fill="none" stroke="#E2E2E2" stroke-miterlimit="10"/>
 <path d="m97.5 152.75c-2.961-0.926-6.152-4.168-8.75-6" fill="none" stroke="#E2E2E2" stroke-miterlimit="10"/>
 <path d="m111.25 148.75c-4.747 0.861-7.258 4.303-10.25 7.5" fill="none" stroke="#E2E2E2" stroke-miterlimit="10"/>
 <path d="m111.75 155.75c-1.93 0.272-3.652 1.236-5.25 2.25" fill="none" stroke="#E2E2E2" stroke-miterlimit="10"/>
 <path d="m101.25 151.25c1.144-1.936 3.48-3.574 4-5.75" fill="none" stroke="#E2E2E2" stroke-miterlimit="10"/>
 <path d="m102.25 142.75c-0.577 2.948-3.315 6.365-0.75 8.75" fill="none" stroke="#E2E2E2" stroke-miterlimit="10"/>
 <path d="m94.75 144c-0.374 2.298-2.027 6.335-0.5 8.25" fill="none" stroke="#E2E2E2" stroke-miterlimit="10"/>
 <path d="m83.5 153.25c1.442-0.87 2.792-1.403 4.5-1.25" fill="none" stroke="#E2E2E2" stroke-miterlimit="10"/>
 <path d="m92 164c0.124-1.013 0.286-2.928 0.75-3" fill="none" stroke="#E2E2E2" stroke-miterlimit="10"/>
 <path d="m94.75 156.5c-0.16-1.131-0.493-2.227-1-3.25" fill="none" stroke="#E2E2E2" stroke-miterlimit="10"/>
 <path d="m91.5 159.25c0.228-2.089 2e-3 -3.814-1.75-5.25" fill="none" stroke="#E2E2E2" stroke-miterlimit="10"/>
 <path d="m97.75 156c-1.384-1.709-0.113-4.443 1.5-5.75" fill="none" stroke="#E2E2E2" stroke-miterlimit="10"/>
 <path d="m102.5 153.5c1.475-0.628 3.525-2.669 5.25-3.75" fill="none" stroke="#E2E2E2" stroke-miterlimit="10"/>
 <path d="m105.75 156.25c0.773-1.362 2.351-4.106 4-4" fill="none" stroke="#E2E2E2" stroke-miterlimit="10"/>
 <path d="m108.75 157.75c1.227-0.92 2.001-2.435 3.25-3.5" fill="none" stroke="#E2E2E2" stroke-miterlimit="10"/>
 <path d="m105.5 144.75c-1.498 0.333-3.175 5.766-3.5 7.5" fill="none" stroke="#E2E2E2" stroke-miterlimit="10"/>
 <path d="m98.75 142.5v6.75" fill="none" stroke="#E2E2E2" stroke-miterlimit="10"/>
 <path d="m92.75 141.75c-0.175 2.927 0.48 5.806 0.5 8.75" fill="none" stroke="#E2E2E2" stroke-miterlimit="10"/>
 <path d="m87.5 144.75c1.215 0.83 2.663 3.127 3.5 4.5" fill="none" stroke="#E2E2E2" stroke-miterlimit="10"/>
 <path d="m82.5 150.75c-0.215 0.244-0.238 0.481-0.068 0.713 2.181 0.728 4.179 1.74 6.318 2.537" fill="none" stroke="#E2E2E2" stroke-miterlimit="10"/>
 <path d="m83.75 157.25c1.92-0.081 3.803-0.244 5.75-0.25" fill="none" stroke="#E2E2E2" stroke-miterlimit="10"/>
 <path d="m92 147.5c1.336 0.476 1.863 5.603 3.5 7.25" fill="none" stroke="#E2E2E2" stroke-miterlimit="10"/>
 <path d="m100.25 143.25c0.461 1.043-0.629 2.687-1.053 3.968-0.638 1.927-0.68 3.512-0.697 5.532" fill="none" stroke="#E2E2E2" stroke-miterlimit="10"/>
 <path d="m106.75 146.5c-2.798 0.478-3.964 4.125-4.5 6.5" fill="none" stroke="#E2E2E2" stroke-miterlimit="10"/>
 <path d="m101.75 144.25c-0.013 2.086-1.623 4.064-1.75 6.25" fill="none" stroke="#E2E2E2" stroke-miterlimit="10"/>
 <path d="m108.5 148.5c-1.06 0.349-1.313 2.125-1.5 3.25" fill="none" stroke="#E2E2E2" stroke-miterlimit="10"/>
 <path d="m104 143.75c-0.962 2.685-2.212 5.254-3 8" fill="none" stroke="#E2E2E2" stroke-miterlimit="10"/>
 <path d="m90.75 145.25c0.294 1.415 1.239 4.065 2.25 5" fill="none" stroke="#E2E2E2" stroke-miterlimit="10"/>
 <path d="m83.75 153.75c3.148 0.881 5.771 2.812 8.75 4" fill="none" stroke="#E2E2E2" stroke-miterlimit="10"/>
 <path d="m85.75 158.75c1.882 0.28 3.668 0.583 5.25 1.75" fill="none" stroke="#E2E2E2" stroke-miterlimit="10"/>
 <path d="m109 149.5c-1.294 1.073-2.022 2.635-3.25 3.75" fill="none" stroke="#E2E2E2" stroke-miterlimit="10"/>
 <path d="m112.25 157.25c-1.364-0.111-3.333-0.029-4.25 0.75" fill="none" stroke="#E2E2E2" stroke-miterlimit="10"/>
 <path d="m107.5 145.25c-2.3 0.888-3.273 6.492-4.25 8.75" fill="none" stroke="#E2E2E2" stroke-miterlimit="10"/>
 <path d="m98.5 144.25c-1.223 0.555 0.241 8.135 0.25 10.25" fill="none" stroke="#E2E2E2" stroke-miterlimit="10"/>
 <path d="m87.5 144.75c1.41 1.494 3.785 3.281 4 5.5" fill="none" stroke="#E2E2E2" stroke-miterlimit="10"/>
 <path d="m87.75 141.5c2.841 0.98 3.386 5.514 5.25 7.75" fill="none" stroke="#E2E2E2" stroke-miterlimit="10"/>
 <path d="m83.5 147.75c2.758-0.326 6.712 3.169 7.75 5.5" fill="none" stroke="#E2E2E2" stroke-miterlimit="10"/>
 <path d="m90.5 144.25c2.267 1.404 3.983 3.444 4.75 6" fill="none" stroke="#E2E2E2" stroke-miterlimit="10"/>
 <path d="m85.25 155.5c2.859-1e-3 5.676-0.264 8 1.75" fill="none" stroke="#E2E2E2" stroke-miterlimit="10"/>
 <path d="m93.5 150.75c2.718-0.566 3.375 2.488 5 3.75" fill="none" stroke="#E2E2E2" stroke-miterlimit="10"/>
 <path d="m103.75 149.75c-0.502 0.966-0.575 2.144-0.5 3.25" fill="none" stroke="#E2E2E2" stroke-miterlimit="10"/>
 <path d="m87 192.75c1.938-9.583 13.67-10.975 21.281-12.487 4.503-0.895 8.753-1.002 13.469-1.013 2.297-5e-3 4.911-0.113 7.1 0.552 3.06 0.928 5.417 2.885 8.15 4.448" fill="none" stroke="#000" stroke-miterlimit="10"/>
 <path d="m79.5 182.25c0.334 2.008 4.095 7.9 6.25 8" fill="none" stroke="#5B8952" stroke-miterlimit="10"/>
 <path d="m138 184.75c2.05-1.647 3.372-5.955 3.25-8.611-0.167-3.648-3.568-5.348-6.307-7.194-5.512-3.716-11.814-3.379-17.736-5.614-3.317-1.252-6.773-2.719-9.695-4.65-2.551-1.687-4.661-1.43-7.769-1.43-1.178 0-2.583-0.206-3.744 0-2.045 0.362-1.646 0.067-1.999 2.056-0.236 1.327 0.274 2.8 4e-3 4.119-0.417 2.038-1.462 3.057-2.656 4.827-3.112 4.609-10.286 7.009-12.159 12.486-1.393 4.072 2.456 12.055 7.312 12.013" fill="none" stroke="#000" stroke-miterlimit="10"/>
 <ellipse transform="matrix(.8929 -.4503 .4503 .8929 -72.148 80.669)" cx="133.49" cy="191.99" rx="3.323" ry="3.465" fill="#E27D26"/>
 <path d="m130.96 193.89c0.527-0.37 0.808-1.167 1.264-1.628 0.362-0.364 0.924-0.66 1.413-0.799 0.808-0.23 2.233-0.118 2.988 0.495 0.067-0.616-0.641-2.083-1.081-2.568-0.796-0.876-1.976-0.789-2.874-0.49-0.865 0.289-1.892 0.758-2.269 1.65-0.387 0.918-0.16 2.313 0.447 3.334" fill="#B25126"/>
 <ellipse transform="matrix(.8929 -.4502 .4502 .8929 -72.052 80.745)" cx="133.72" cy="191.84" rx="1.622" ry="1.928" fill="#0E0B0E" stroke="#000" stroke-miterlimit="10"/>
 <ellipse transform="matrix(.8929 -.4503 .4503 .8929 -72.169 80.655)" cx="133.44" cy="192.01" rx="3.323" ry="3.465" fill="none" stroke="#000" stroke-miterlimit="10"/>
 <circle cx="135.07" cy="190.71" r="1.142" fill="#EAEAEA"/>
 <ellipse transform="matrix(.8929 -.4502 .4502 .8929 -77.87 118.97)" cx="211.19" cy="223.2" rx="3.154" ry="3.589" fill="#E27D26"/>
 <path d="m208.81 225.05c0.497-0.358 0.741-1.161 1.166-1.614 0.337-0.358 0.87-0.641 1.338-0.765 0.773-0.206 2.155-0.042 2.906 0.607 0.044-0.625-0.692-2.144-1.134-2.652-0.8-0.921-1.938-0.872-2.795-0.599-0.827 0.264-1.803 0.706-2.136 1.601-0.343 0.921-0.074 2.351 0.548 3.411" fill="#B25126"/>
 <ellipse transform="matrix(.8929 -.4503 .4503 .8929 -77.792 119.08)" cx="211.41" cy="223.06" rx="1.54" ry="1.997" fill="#0E0B0E" stroke="#000" stroke-miterlimit="10"/>
 <ellipse transform="matrix(.8928 -.4504 .4504 .8928 -77.908 119.01)" cx="211.14" cy="223.22" rx="3.154" ry="3.589" fill="none" stroke="#000" stroke-miterlimit="10"/>
 <ellipse transform="matrix(.8929 -.4503 .4503 .8929 -76.82 118.73)" cx="211.15" cy="220.84" rx="1.084" ry="1.185" fill="#EAEAEA"/>
 <ellipse transform="matrix(.8929 -.4502 .4502 .8929 -75.953 127.08)" cx="229.19" cy="223.22" rx="3.154" ry="3.589" fill="#E27D26"/>
 <path d="m226.81 225.07c0.497-0.358 0.741-1.161 1.165-1.614 0.338-0.358 0.871-0.641 1.338-0.765 0.773-0.206 2.156-0.042 2.906 0.607 0.045-0.625-0.691-2.144-1.133-2.652-0.801-0.921-1.938-0.872-2.795-0.599-0.827 0.264-1.803 0.706-2.137 1.601-0.342 0.921-0.074 2.351 0.549 3.411" fill="#B25126"/>
 <ellipse transform="matrix(.8929 -.4503 .4503 .8929 -75.875 127.18)" cx="229.4" cy="223.08" rx="1.54" ry="1.997" fill="#0E0B0E" stroke="#000" stroke-miterlimit="10"/>
 <ellipse transform="matrix(.8929 -.4503 .4503 .8929 -75.984 127.1)" cx="229.14" cy="223.25" rx="3.154" ry="3.589" fill="none" stroke="#000" stroke-miterlimit="10"/>
 <ellipse transform="matrix(.8928 -.4505 .4505 .8928 -74.922 126.9)" cx="229.15" cy="220.86" rx="1.084" ry="1.185" fill="#EAEAEA"/>
 <ellipse transform="matrix(.8929 -.4503 .4503 .8929 -74.468 70.594)" cx="111.15" cy="191.83" rx="3.323" ry="3.466" fill="#E27D26"/>
 <path d="m108.62 193.73c0.527-0.37 0.808-1.168 1.264-1.629 0.362-0.364 0.924-0.66 1.413-0.799 0.808-0.23 2.233-0.118 2.988 0.494 0.067-0.615-0.641-2.084-1.081-2.568-0.796-0.876-1.976-0.789-2.874-0.489-0.865 0.289-1.892 0.759-2.269 1.649-0.387 0.918-0.16 2.314 0.447 3.334" fill="#B25126"/>
 <ellipse transform="matrix(.8929 -.4502 .4502 .8929 -74.372 70.671)" cx="111.38" cy="191.68" rx="1.622" ry="1.928" fill="#0E0B0E" stroke="#000" stroke-miterlimit="10"/>
 <ellipse transform="matrix(.8929 -.4502 .4502 .8929 -74.482 70.567)" cx="111.1" cy="191.85" rx="3.323" ry="3.465" fill="none" stroke="#000" stroke-miterlimit="10"/>
 <circle cx="112.73" cy="190.56" r="1.142" fill="#EAEAEA"/>
 <ellipse transform="matrix(.8929 -.4502 .4502 .8929 -100.88 106.16)" cx="172.74" cy="265.15" rx="3.709" ry="3.563" fill="#E27D26"/>
 <path d="m169.89 267.23c0.591-0.406 0.929-1.251 1.446-1.748 0.411-0.395 1.038-0.724 1.581-0.886 0.896-0.271 2.458-0.203 3.265 0.41 0.096-0.646-0.63-2.157-1.096-2.647-0.843-0.89-2.142-0.757-3.138-0.41-0.961 0.332-2.105 0.859-2.55 1.806-0.458 0.973-0.258 2.427 0.373 3.472" fill="#B25126"/>
 <ellipse transform="matrix(.8929 -.4502 .4502 .8929 -100.78 106.27)" cx="173" cy="264.99" rx="1.811" ry="1.983" fill="#0E0B0E" stroke="#000" stroke-miterlimit="10"/>
 <ellipse transform="matrix(.8929 -.4503 .4503 .8929 -100.91 106.16)" cx="172.68" cy="265.18" rx="3.71" ry="3.562" fill="none" stroke="#000" stroke-miterlimit="10"/>
 <ellipse transform="matrix(.8927 -.4507 .4507 .8927 -100.15 106.98)" cx="174.52" cy="263.76" rx="1.275" ry="1.175" fill="#EAEAEA"/>
 <path d="m194.75 199.25c2.434 0.318 3.354 1.319 5.25 2.75" fill="none" stroke="#000" stroke-miterlimit="10"/>
 <path d="m207.5 189c2.043 1.182 2.867 7.165 3 9.5" fill="none" stroke="#000" stroke-miterlimit="10"/>
 <path d="m226.25 187.5c-2.02 1.53-5.258 4.807-5.75 7.5" fill="none" stroke="#000" stroke-miterlimit="10"/>
 <path d="m242 196.25c-4.314 0.677-8.597 1.714-12.5 3.75" fill="none" stroke="#000" stroke-miterlimit="10"/>
 <path d="m244.5 199.25c2.666-0.446 7.113 2.472 7.249 5.25 0.136 2.771-4.146 6.072-6.604 6.692 1.685-0.253 4.559-3.461 4.618-5.205 0.073-2.128-3.295-5.511-4.763-6.737" fill="#B7B7B7"/>
 <path d="m192 204.25c-2.152 0.251-4.119-0.732-5.632-2.187 1.84-1.255 4.549-1.057 6.764-1.063-2.192-0.448-2.193 3.139-0.632 3.75" fill="#B7B7B7"/>
 <path d="m200.75 198.5c-1.273-3.101 2.728-5.687 4.687-7.619 0.976 1.226 0.524 2.716 1.002 4.106 0.563 1.638 1.344 2.628 2.486 3.974-1.82 0.04-6.085-3.736-7.675-0.961" fill="#B7B7B7"/>
 <path d="m222 197.75c0.482-2.432 2.755-7.036 5.506-7 3.426 0.045 5.123 4.611 8.438 4.944-2.451-0.063-4.754 0.292-7.206 0.056-2.913-0.281-5.6-0.593-6.737 2.75" fill="#B7B7B7"/>
 <path d="m214.75 200.5c3e-3 -3.12-0.912-4.785-2.438-7.625 1.865-0.377 4.16 0.129 6.111-0.28-2.792 1.957-0.965 6.215-3.174 7.906" fill="#B7B7B7"/>
 <path d="m244.12 229.88c0.5 1.536-0.293 3.71 0.524 5.115-0.886-0.063-1.942-0.585-2.774-0.852-0.833-0.268-2.043-0.436-2.847-0.864 1.032-0.359 2.337-0.336 3.472-0.677 1.359-0.409 1.315-1.612 2-2.848" fill="#121212"/>
 <path d="m191.75 231.25c-0.439 1.043-0.173 3.113-0.105 4.364 1.306-1.168 2.508-1.858 4.323-2.02 1.168-0.104 2.4 0.012 3.494-0.341-1.331-0.296-2.742-0.294-4.1-0.512-1.507-0.24-2.495-1.178-3.861-1.742" fill="#121212"/>
 <path d="m221.75 291.5c-1.22-0.19-2.592 0.96-3.473 1.653-0.813 0.641-1.909 1.037-2.614 1.821 1.113 0.078 1.947-0.313 2.337 0.748 0.363 0.99-0.303 2.245-0.253 3.239 1.205-2.543 3.032-4.756 4.503-7.087" fill="#B7B7B7"/>
 <path d="m231.38 290c1.301-0.409 2.606-0.896 3.989-0.384-0.688 0.868-1.087 1.88-0.776 3.102-1.242-0.355-1.998-1.819-3.338-2.218" fill="#B7B7B7"/>
 <path d="m225.62 290.38c-0.648 0.866 1.86 1.173 2.557 0.743-0.805-0.112-1.559-0.436-2.432-0.493" fill="#B7B7B7"/>
 <path d="m228.12 294.12c0.206-0.11 0.492-0.127 0.735-0.105 0.289 1.275 1.764 2.329 1.468 3.73-0.996-0.241-0.594-0.711-0.828-1.383-0.275-0.783-0.444-1.283-1.125-1.867" fill="#B7B7B7"/>
 <path d="m225.12 296.88c-0.63 1.583-1.779 4.272-1.132 5.99 0.505-0.502 0.464-2.261 0.702-2.993 0.353-1.087 0.725-1.927 0.68-3.122" fill="#B7B7B7"/>
 <path d="m248.38 302.5c4.396 2.071 9.662 7.701 5.119 12.002-2.019 1.911-4.716 2.645-7.501 3.206-3.396 0.686-6.488 0.188-9.661-0.076 1.133-0.288 2.29-0.075 3.414-0.382 1.212-0.33 2.274-0.96 3.471-1.382 1.891-0.667 3.878-2.109 5.402-3.359 1.538-1.263 2.307-3.119 2.131-5.076-0.109-1.208-0.515-1.404-1.128-2.301-0.549-0.803-0.549-1.73-1.122-2.507" fill="#CFCECC"/>
 <path d="m258.62 302c1.005-0.014 2.179 0.193 2.931 0.902 1.462 1.379 0.111 1.873-0.536 3.283 0.013-0.589 0.503-1.706 0.337-2.283-0.188-0.648-1.352-1.391-1.981-1.652" fill="#B7B7B7"/>
 <path d="m220.12 311.38c1.063 0 2.22 0.021 3.143-0.271-0.598 0.765-1.484 3.019-0.262 3.706-1.638-1.046-2.25-1.64-2.256-3.56" fill="#B7B7B7"/>
 <path d="m223.88 320.12c-0.736 1.324 1.099 3.725 2.381 4.003 1.502 0.326 4.311-0.688 4.072-2.487-2.24-0.074-4.875 2.51-6.078-0.891" fill="#B7B7B7"/>
 <path d="m233.12 327.62c2.162 1.108 3.503 2.182 6.121 1.591 1.644-0.371 3.124-1.141 2.984-2.956-0.83 0.368-1.387 1.221-2.175 1.624-0.796 0.407-1.894 0.537-2.79 0.622-1.221 0.116-2.578 0.074-3.641-0.381" fill="#B7B7B7"/>
 <path d="m250.38 325.62c1.433-0.033 2.916 1.655 4.389 0.665 0.664-0.446 1.934-2.931 1.489-3.627-1.228 2.617-3.241 2.965-5.878 3.212" fill="#B7B7B7"/>
 <path d="m263.75 310.12c1.664-0.023 2.935 2.485 2.475 3.903-0.556 1.71-2.535 3.367-3.755 4.489 2.256-0.903 4.233-6.733 1.78-8.518" fill="#B7B7B7"/>
 <path d="m273.33 294.84c1.383-0.025 2.437 4.454 2.875 5.49 0.919 2.174 1.515 4.543 2.621 6.685 0.926 1.791 2.017 3.529 3.662 4.659 0.805 0.553 1.841 1.253 2.851 1.504 0.745 0.187 1.568 0.029 2.107 0.455-1.477 1.103-3.572 1.382-4.963 2.856-1.118 1.187-1.845 2.813-2.802 4.185-1.534 2.198-5.004 4.639-7.542 4.678 0.93-0.833 1.914-2.01 2.662-3.016 0.95-1.278 2.04-2.476 2.861-3.825 1.239-2.036 0.79-5.732 0.339-8.017-0.252-1.275-1.03-2.361-1.338-3.614-0.358-1.459-0.438-2.889-0.843-4.336-0.328-1.177-0.691-2.445-0.982-3.574-0.286-1.109-0.129-2.439-0.509-3.463" fill="#131313"/>
 <path d="m201.5 343.67c-0.657 0.095-1.207 0.43-1.499 1.001 1.415 3.425 6.826-0.36 8.803-0.807-0.856-0.118-9.031 1.478-7.137-0.861" fill="#131313"/>
 <path d="m247.5 328.67c1.821-0.016 3.609 1.335 5.009 2.333 1.386 0.987 3.648 2.123 4.675 3.501 1.087 1.462 1.38 3.84 1.291 5.645-1.345 0.235-3.505-0.897-4.899-1.183-2.071-0.425-4.528-0.337-6.487-0.942 1.211-1.762 1.552-6.62 0.745-8.688" fill="#131313"/>
 <path d="m226.33 329.34c0.619 3.184 0.5 6.487 0.5 9.738 0 1.651 0.553 5.142-0.797 6.33-1.088 0.958-0.459 0.232-1.666-0.408-0.935-0.497-2.006-0.75-3.02-1.146-2.091-0.815-3.778-0.601-5.998-0.697 0.255-0.818 1.723-2.021 2.368-2.834 1.443-1.815 2.911-3.59 4.413-5.366 1.473-1.743 2.565-3.479 4.199-5.117" fill="#131313"/>
 <path d="m202.5 309.5c-0.108 2.465 1.022 4.716 1.383 7.161 0.415 2.822 0.941 5.574 1.422 8.372 0.283 1.651 0.079 3.303 0.195 4.971 0.103 1.472 0.479 2.827 0.525 4.316 1.532-1.149 3.382-1.201 5.128-1.809-0.945-1.998-1.853-3.232-2.19-5.536-0.314-2.144-1.153-4.431-1.922-6.466-0.739-1.957-1.482-3.972-2.37-5.884-0.631-1.361-2.036-3.12-2.171-4.626" fill="#131313"/>
 <path d="m238.67 356.01c2.702 4.105-4.217 6.784-6.616 4.029 3.127-0.103 4.894-1.312 6.282-3.862"/>
 <path d="m289.17 326.01c1.688-5e-3 3.896-0.74 5.463-0.166 1.474 0.54 3.019 3.548 1.657 4.875-0.974-1.207-0.274-2.424-1.958-3.579-1.1-0.755-2.415-1.392-3.829-1.297"/>
 <path d="m269.5 202.84c1.136-0.144 2.62 0.254 3.007 1.338 0.543 1.52-1.149 2.578-1.814 3.628-0.258-1.861 1.332-3.313-0.525-4.799" fill="#59595A"/>
 <path d="m266.5 223.84c0 3.202-0.134 6.452 0.025 9.642 0.286 0.092 0.837 0.09 1.12 4e-3 0.113-2.503 0.844-7.409 0.099-9.71" fill="#5B5C5C" stroke="#000" stroke-miterlimit="10"/>
 <path d="m269.5 224.83c-0.892-0.197-2.265-1.178-2.32-2.18 4.247-2.674 7.311 5.969 2.487 7.013" fill="none" stroke="#000" stroke-miterlimit="10"/>
 <path d="m161.17 352.52c-2.019-0.23-4.183 2.095-3.5 4.203 0.597 1.84 3.985 1.462 5.824 1.297 1.144-0.103 2.455-0.308 3.196-1.343 0.313-0.436 0.979-2.487 0.453-3.002-1.278-1.251-4.558 1.278-5.641-1.322" fill="#141314"/>
 <path d="m159.33 354.69c-2.373 2.885 2.714 3.871 4.326 2.024-1.555-0.248-4.255-0.604-3.826-2.857"/>
 <path d="m185.17 353.35c0.711-4e-3 1.467 0.021 2.138-0.063 0.213-1.778 1.587 0.27 1.341 1.379-1.006 0.038-2.61 0.395-2.979-0.816"/>
 <path d="m181.21 310.22c-2.247 0.846-4.547 1.706-6.938 2.032-1.117 0.152-2.636 0.508-3.258-0.645-0.223-0.413-0.723-1.359-0.3-1.758 0.349-0.329 0.947-4e-3 1.363-0.092 1.884-0.396 3.775-1.465 5.525-2.244 2.33-1.038 4.846-1.599 7.232-2.325 1.534-0.467 3.107-0.788 4.69-1.038 0.659-0.104 1.309-0.049 1.946-0.21 0.773-0.196 1.498-0.542 2.285-0.701 0.535-0.108 2.578-1.036 2.711-0.245 0.102 0.607-1.692 1.644-2.088 1.945-1.262 0.962-2.7 1.675-4.165 2.272-2.935 1.197-6.04 1.894-9.003 3.009z" fill="#EF9959"/>
 <path d="m171.5 312.44c-0.12-0.883 3.501-0.932 4.076-1.027 1.841-0.309 3.634-1.135 5.391-1.771 1.011-0.367 2.034-0.548 3.029-0.938 0.977-0.383 1.953-0.833 2.917-1.248 1.98-0.853 3.997-1.737 5.96-2.529 0.707-0.285 1.421-0.599 2.045-0.973 0.765-0.458 1.263-0.931 2.141-1.19 1.051-0.311 2.375-0.116 3.484-0.141-0.841 0.384-1.562 1.215-2.313 1.748-0.826 0.587-1.724 1.299-2.513 1.938-1.689 1.37-3.58 2.487-5.634 3.255-1.378 0.515-2.668 1.041-4.072 1.504-1.436 0.474-2.934 0.79-4.34 1.355-2.652 1.065-5.442 1.478-8.24 2.023-0.404 0.078-1.081 0.362-1.425 0.346 8e-3 -0.562-0.773-1.76-0.634-2.04" fill="#EED459"/>
 <path d="m172.31 314.44c0.626 0.037 1.276-0.321 1.859-0.514 0.896-0.296 1.735-0.432 2.659-0.594 1.107-0.195 2.198-0.396 3.233-0.814 2.093-0.847 4.275-1.55 6.328-2.433 1.869-0.805 4-1.507 5.739-2.633 1.682-1.089 3.396-2.135 5.07-3.263 0.845-0.568 1.652-1.095 2.611-1.453 0.757-0.283 2.066-0.706 2.872-0.428 0.175 0.782-1.105 1.941-1.593 2.464-1.005 1.078-2.358 1.989-3.546 2.842-1.205 0.864-2.495 1.946-3.881 2.463-1.558 0.58-3.029 1.28-4.567 1.884-2.191 0.859-4.454 1.711-6.672 2.427-0.719 0.232-1.416 0.496-2.129 0.726-0.813 0.261-1.67 0.387-2.477 0.649-1.241 0.404-4.49 1.556-5.197-0.068-0.159-0.364-0.121-0.737-0.122-1.13" fill="#A5CF5C"/>
 <path d="m174.88 316.62c0.51-0.162 1-0.597 1.505-0.826 0.434-0.197 0.892-0.377 1.309-0.549 0.765-0.315 1.598-0.531 2.403-0.797 0.934-0.309 1.833-0.727 2.767-0.939 1.151-0.263 2.241-0.794 3.408-1.092 1.719-0.438 3.071-1.467 4.685-2.091 1.906-0.737 3.47-1.953 5.065-3.092 1.537-1.098 2.935-2.236 4.481-3.333 1.069-0.758 2.345-2.03 3.754-1.969 2.579 0.114-0.973 3.37-1.69 3.969-1.96 1.636-4.184 3.015-6.326 4.471-2.459 1.672-5.331 2.538-8.042 3.795-1.872 0.868-3.827 1.627-5.749 2.389-1.579 0.627-3.06 0.978-4.763 0.939-0.536-0.012-1.232-0.07-1.73-0.244-0.39-0.136-1.53-0.779-0.953-1.193" fill="#706EB2"/>
 <path d="m180.44 317.12c0.866-1.085 2.47-1.52 3.7-2.042 0.89-0.378 1.763-0.755 2.688-1.086 1.632-0.584 3.211-1.088 4.796-1.858 2.123-1.031 4.4-1.912 6.126-3.527 0.639-0.598 1.204-1.266 1.875-1.803 0.773-0.618 1.462-1.085 2.065-1.901 0.461-0.625 1.078-1.161 1.684-1.63 0.591-0.457 1.247-1.135 1.989-1.215 0.517-0.056 1.893-0.205 2.293 0.086 0.636 0.463-0.295 1.55-0.603 2.036-1.021 1.614-2.582 2.808-4.113 3.951-2.106 1.574-4.345 3.327-6.654 4.561-2.527 1.35-5.332 2.332-8.007 3.246-2.434 0.832-5.137 1.245-7.715 1.245" fill="#995EA5"/>
 <path d="m166 293.31c0.141-0.901 1.435-1.666 2.201-1.875 0.812-0.222 1.622-0.152 2.478-0.197-0.239-0.968-2.262-1.25-3.069-0.853-0.804 0.396-1.988 1.733-1.61 2.737" fill="#F05760"/>
 <path d="m165.69 293.5c0.349-1.583 1.562-1.952 3.006-2.19 0.919-0.152 3.015-0.317 3.429 0.743-1.142 0.061-2.204 0.049-3.307 0.413-0.966 0.318-2.208 0.752-2.882 1.512 0.103-0.312 0.156-0.644 0.129-0.978" fill="#EF9959"/>
 <path d="m166 294.88c0-0.619-0.146-1.23 0.326-1.641 0.444-0.385 1.215-0.427 1.737-0.604 0.794-0.272 1.501-0.499 2.339-0.644 0.497-0.086 1.841-0.575 2.143 0.02-1.03 0.235-2.197 0.729-3.238 1.116-1.108 0.412-2.499 0.702-3.369 1.503" fill="#EED459"/>
 <path d="m167.42 299.44c0.307-2.023 2.493-2.406 4.124-3.092 0.801-0.338 4.23-2.217 4.75-0.733-0.582 0.235-1.257 0.238-1.871 0.396-1.162 0.3-2.403 0.916-3.516 1.378-1.238 0.514-2.286 1.368-3.361 2.113" fill="#EED459"/>
 <path d="m165.75 295.19c0.604-1.501 1.714-1.688 3.12-2.181 0.729-0.256 1.465-0.43 2.199-0.68 0.662-0.227 1.471-0.638 1.992 0.037-1.455 0.471-2.959 1.095-4.399 1.592-0.504 0.174-0.987 0.339-1.475 0.558-0.387 0.174-0.675 0.535-1.053 0.669-0.01-0.112-0.029-0.259-8e-3 -0.37" fill="#A5CF5C"/>
 <path d="m166.31 295.81c8e-3 -0.728 0.113-1.031 0.813-1.33 0.658-0.28 1.329-0.539 2-0.813 1.14-0.467 3.073-1.563 4.311-1.175-0.553 0.981-2.727 1.494-3.697 1.832-1.137 0.397-2.229 0.865-3.364 1.236" fill="#706EB2"/>
 <path d="m166.44 295.53c-0.058 0.616 0.411 1.106 0.371 1.665 0.907-0.881 1.733-1.444 2.944-1.902 0.838-0.318 1.824-0.577 2.707-0.735 0.329-0.059 1.633 6e-3 1.855-0.196 0.451-0.412-0.619-1.274-1-1.398-0.741-0.239-1.629 0.512-2.278 0.769-0.72 0.285-1.396 0.593-2.146 0.738-0.758 0.146-2.146 0.278-2.638 0.998" fill="#995EA5"/>
 <path d="m180 303.44c0.922-0.537 2.245-1.451 2.918-0.058-0.783 0.248-1.939 0.058-2.793 0.058" fill="#995EA5"/>
 <path d="m167.49 299c0.461-1.813 2.656-3.421 4.362-3.871 1.397-0.369 2.817-0.396 4.172 0.151-0.739-0.817-0.976-1.225-2.146-1.294-1.223-0.072-2.197 0.027-3.309 0.488-1.25 0.518-2.919 0.684-3.773 1.896-0.605 0.858-0.049 1.815 0.456 2.501" fill="#F05760"/>
 <path d="m167.86 299.44c-0.031-1.431 2.203-1.977 3.241-2.3 1.309-0.408 2.648-1.136 3.996-1.437 0.365-0.081 1.683-0.291 1.515 0.426-0.093 0.396-1.118 0.471-1.445 0.57-0.953 0.288-1.88 0.66-2.797 1.042-0.944 0.394-1.871 0.711-2.698 1.32-0.596 0.438-1.157 0.899-1.741 1.364-0.149-0.451-0.151-1.006-0.134-1.486" fill="#A5CF5C"/>
 <path d="m167.36 299.5c-0.355-1.806 2.095-3.672 3.488-4.285 1.381-0.606 4.002-1.102 5.368-0.17-0.502 0.398-1.428 0.231-2.055 0.418-1.208 0.357-2.371 0.9-3.552 1.353-0.649 0.248-1.256 0.457-1.777 0.886-0.385 0.316-1.453 0.894-1.347 1.486" fill="#EF9959"/>
 <path d="m168.25 300.78c-0.228-0.228-0.346-0.642-0.117-0.91 0.142-0.166 0.295-0.104 0.458-0.186 0.166-0.082 0.293-0.272 0.438-0.401 0.642-0.571 1.44-0.904 2.143-1.386 1.219-0.835 2.68-1.167 4.115-1.375 0.424-0.062 1.308-0.384 1.714-0.191 1.634 0.771-2.964 1.652-3.082 1.691-1.125 0.379-2.5 0.602-3.436 1.342-0.574 0.454-1.216 1.182-1.919 1.457" fill="#706EB2"/>
 <path d="m167.94 301.62c-0.197-1.584 1.982-2.283 3.087-2.701 1.495-0.566 2.877-1.392 4.381-1.877 0.326-0.104 1.644-0.516 1.85-0.112 0.444 0.873-4.044 2.154-4.59 2.345-0.953 0.331-1.701 0.648-2.351 1.381-0.563 0.634-1.07 1.349-1.619 2.003-0.157-0.749-0.345-1.513-0.634-2.226" fill="#995EA5"/>
 <path d="m168.59 302.69c0.609-1.371 2.119-2.688 3.304-3.549 0.937-0.682 1.91-1.365 3.096-1.502 0.394-0.046 0.787-0.05 1.183-0.067 0.353-0.017 0.751-0.312 1.075-0.263 0.241 0.035 0.322 0.243 0.481 0.392 0.177 0.166 0.434 0.249 0.545 0.479-1.487 0.078-2.857 0.353-4.33 0.684-0.833 0.187-2.093 0.746-2.671 1.381-0.467 0.513-0.893 1.265-1.355 1.834-0.2 0.246-1.33 1.899-1.203 0.861" fill="#F05760"/>
 <path d="m168.88 303.2c0.837-1.688 1.955-3.168 3.563-4.203 0.808-0.521 2.042-0.777 3-0.923 0.572-0.088 2.514-0.476 2.878 0.053-1.417 0.312-2.911 1.007-4.231 1.606-0.826 0.375-1.469 0.724-2.181 1.284-0.999 0.786-2.006 1.706-3.028 2.433" fill="#EF9959"/>
 <path d="m169.06 303.2c-0.709-1.34 3.458-2.857 4.311-3.232 0.909-0.4 1.817-0.834 2.783-1.156 0.688-0.229 1.905-0.954 2.526-0.176-0.219 0.587-2.153 1.01-2.661 1.214-1.231 0.496-2.51 1.058-3.598 1.774-1.168 0.769-2.445 1.627-3.402 2.683 0.192-0.354 0.103-0.834 0.103-1.231" fill="#EED459"/>
 <path d="m169.13 304.26c-0.067-1.862 2.838-3.005 4.209-3.509 1.032-0.38 2.043-0.783 3.075-1.181 0.601-0.23 1.741-1.033 2.339-0.623-0.312 0.338-0.873 0.376-1.271 0.567-0.419 0.202-0.744 0.565-1.209 0.676-0.608 0.144-0.995 0.634-1.574 0.899-0.29 0.133-0.545 0.229-0.859 0.29-0.852 0.169-1.518 0.77-2.204 1.271-0.813 0.594-1.599 1.226-2.325 1.924-0.132-0.171-0.187-0.396-0.181-0.627" fill="#A5CF5C"/>
 <path d="m169.19 305.07c7e-3 -0.992 1.983-2.39 2.814-2.892 0.757-0.458 1.604-0.679 2.38-1.092 0.762-0.405 1.439-0.787 2.246-1.122 0.676-0.281 1.651-0.943 2.43-0.821-0.916 0.97-2.564 1.185-3.746 1.807-0.855 0.451-1.691 0.824-2.464 1.443-0.635 0.509-1.155 1.073-1.782 1.567-0.565 0.445-1.272 0.866-1.878 1.297" fill="#706EB2"/>
 <path d="m169.56 306.31c0.085 0.084 2.472-3.23 2.877-3.592 1.056-0.94 2.16-1.677 3.473-2.151 1.109-0.402 2.744-1.016 3.939-0.64-0.493 0.475-1.407 0.843-1.985 1.184-1 0.59-2.121 1.007-3.124 1.524-0.751 0.388-1.552 1.096-2.114 1.723-0.499 0.558-0.911 1.111-1.375 1.699-0.474 0.601-0.739 1.341-1.369 1.798-0.105-0.449-0.144-0.912-0.322-1.357" fill="#F05760"/>
 <path d="m169.5 306.38c0.31-0.436 0.038-0.851 0.139-1.317 0.104-0.48 0.647-0.83 1.078-1.134 0.483-0.341 0.959-0.691 1.438-1.037 0.461-0.332 0.808-0.638 1.187-1.036 0.686-0.72 1.818-0.844 2.665-1.294 0.323-0.172 0.639-0.358 0.97-0.513 0.348-0.163 0.708-0.2 1.056-0.323 0.572-0.201 1.028-0.557 1.396 0.204-0.289 0.158-0.811-5e-3 -1.147 0.044" fill="#995EA5"/>
 <path d="m169.81 307.38c0.939-0.952 1.523-2.288 2.483-3.251 0.82-0.824 1.909-1.35 2.833-2.012 0.879-0.63 1.625-1.13 2.649-1.517 0.485-0.184 0.993-0.487 1.521-0.408 0.399 0.06 1.044 0.564 1.245 0.943-1.474 0.404-2.998 0.979-4.437 1.608-0.903 0.395-1.589 1.139-2.35 1.75-0.654 0.525-1.476 1.03-2.194 1.587-0.469 0.364-0.761 0.724-1.063 1.208-0.219 0.351-0.334 0.819-0.616 1.12-0.021-0.353-9e-3 -0.729-9e-3 -1.092" fill="#EF9959"/>
 <path d="m169.81 308.31c0.067-0.565 0.754-1.335 1.111-1.795 0.36-0.465 0.73-0.772 1.2-1.126 0.978-0.734 1.945-1.378 2.937-2.091 0.695-0.501 5.413-3.798 5.672-1.612-2.604 1.405-5.395 2.641-7.904 4.108-0.478 0.279-1.011 0.638-1.454 0.966-0.391 0.288-1.185 0.866-1.374 1.3" fill="#EED459"/>
 <path d="m169.94 308.62c-0.077-2.283 2.991-3.241 4.558-4.203 1.113-0.683 2.344-1.139 3.514-1.715 0.772-0.381 1.539-0.99 2.428-1.053 0.381-0.026 0.804 0.126 1.058 0.424 0.266 0.313 0.142 0.569-0.277 0.547-0.32-0.018-0.679-0.104-0.995-0.083-0.312 0.021-0.605 0.211-0.885 0.34-0.816 0.375-1.624 0.772-2.457 1.11-1.234 0.5-2.596 0.992-3.702 1.754-0.846 0.583-2.585 1.664-2.991 2.691" fill="#A5CF5C"/>
 <path d="m170.19 308.75c-1.11-0.675 2.923-2.754 3.378-3.045 0.736-0.472 1.336-0.989 2.1-1.42 0.94-0.531 1.994-0.952 3.015-1.344 0.675-0.26 1.384-0.503 2.07-0.566 0.494-0.046 1.746 8e-3 0.972 0.675-0.292 0.251-1.042 0.381-1.404 0.547-1.075 0.493-2.16 1.011-3.225 1.484-0.849 0.378-1.754 0.725-2.594 1.077-0.971 0.407-1.789 1.123-2.559 1.84-0.598 0.557-1.418 1.806-2.003 0.627" fill="#706EB2"/>
 <path d="m170.34 310c3.224-5.894 12.556-6.67 18.22-6.669 6.753 1e-3 13.52-2.164 20.081-1.617-1.688 3.441-5.649 6.773-8.789 8.895-4.127 2.788-9.225 5.521-14.277 6.463-2.463 0.459-7.757 1.12-10.167 0.219-5.307-1.986-5.641-11.819-7.574-16.484-1.206-2.909-4.579-11.259 1.75-10.195 6.176 1.038 9.004 10.714 14.583 12.75" fill="none" stroke="#000" stroke-miterlimit="10"/>
 <path d="m94.5 263.75c5.256 2.9 9.417 8.751 13.682 13.139 3.807 3.916 8.462 4.896 13.812 4.611 10.194-0.541 19.941-7.897 29.744-8.853" fill="none" stroke="#000" stroke-miterlimit="10"/>
 <path d="m70.667 349.85c-0.815 1.318-2.332 4.933-2.337 6.662-7e-3 2.407 4.299 2.776 6.355 3.188 4.324 0.867 3.343-5.944 2.234-8.145-0.896-1.778-3.486-2.263-5.419-2.206" fill="#151415"/>
 <path d="m99.667 357.02c0.912 0.176 2.038 1.107 2.992 0.846 1.398-0.384 1.027-1.705 1.325-2.758 2.741 1.665-0.214 7.121-3.149 2.246"/>
 <path d="m71.333 355.02c0.748 0.146 2.343 0.963 3.137 0.503 0.927-0.536 0.267-1.506 0.384-2.584 0.88 0.817 1.893 3.34 1.79 4.556-2.219 0.086-3.99-0.771-4.811-2.975"/>
 <path d="m100 338.34c1.632 1.223 7.442 0.763 9.822 0.683 4.068-0.137 6.215-1.608 9.396-3.77 1.333-0.905 2.943-1.803 3.985-3.076 0.992-1.212 1.463-2.844 2.604-4.13 0.167 3.805-1.097 7.457-3.788 10.109-2.388 2.354-5.882 5.812-9.334 6.018-3.345 0.2-7.628 0.464-10.843-0.536-1.296-0.403-2.423-0.733-2.476-1.831-0.014-0.282 0.568-1.209 0.632-1.637 0.063-0.424-4e-3 -0.903 0-1.33" fill="#351D25"/>
 <path d="m94.5 333.18c-2.654 2.055-3.482 5.09-7.097 5.5-4.241 0.481-7.828-1.103-10.547-4.159 5.94-0.103 11.392-0.392 17.145-1.341" fill="#351D25"/>
 <path d="m83.974 222.15c-2.276-0.349-3.378-2.326-5.782-2.182-0.835 0.05-5.126 0.594-2.85-1.238 0.859-0.691 2.903-0.962 3.983-0.892 1.745 0.114 5.222 2.138 4.649 4.312z" fill="#E94B4B"/>
</svg>
